<?xml version="1.0" encoding="UTF-8"?>
<svg version="1.1" xmlns="http://www.w3.org/2000/svg" width="1024" height="1024">
<path d="M0 0 C337.92 0 675.84 0 1024 0 C1024 337.92 1024 675.84 1024 1024 C686.08 1024 348.16 1024 0 1024 C0 686.08 0 348.16 0 0 Z " fill="#FDFDFD" transform="translate(0,0)"/>
<path d="M0 0 C1.2271875 0.4021875 2.454375 0.804375 3.71875 1.21875 C16.0423042 5.52697183 25.73617378 13.21840167 31.9921875 24.84375 C35.22699047 31.86789359 35.19265509 38.98838107 35.1875 46.5625 C35.18814453 47.53525879 35.18878906 48.50801758 35.18945312 49.51025391 C35.13582605 56.84619376 34.51993825 63.80743508 33 71 C33.78375 71.103125 34.5675 71.20625 35.375 71.3125 C38 72 38 72 40 75 C40.75460811 81.50022073 38.24355105 87.5177144 35.75 93.375 C35.31892944 94.40983521 35.31892944 94.40983521 34.87915039 95.46557617 C33.40649584 98.74961592 32.40376087 100.68348714 29.5234375 102.94140625 C25.9367116 105.86741949 24.66576603 109.36870998 22.875 113.5625 C22.21182106 115.08729945 21.54275006 116.6095528 20.8671875 118.12890625 C20.57956543 118.79994385 20.29194336 119.47098145 19.99560547 120.16235352 C19 122 19 122 17.41040039 123.58642578 C15.31152232 125.69002696 15.56652485 127.40253474 15.5625 130.3125 C15.72885124 135.36292376 16.41675798 138.23759587 20 142 C25.11157984 145.77949335 30.1500684 147.94611019 36.25 149.5625 C45.52691124 152.20447413 54.7147943 155.08869262 63.87780762 158.09884644 C65.43261887 158.60756247 66.98897614 159.11158272 68.54699707 159.61038208 C86.10914052 165.23861102 104.49512116 171.9738204 115.13671875 187.921875 C116.20354511 190.48998191 115.91535221 191.41556753 115 194 C112.96138214 195.97528801 110.97825124 197.70018052 108.75 199.4375 C108.08814697 199.95683105 107.42629395 200.47616211 106.74438477 201.01123047 C91.44251376 212.73874989 74.80812282 221.71156006 57 229 C56.26894043 229.29986816 55.53788086 229.59973633 54.78466797 229.90869141 C19.96682214 243.86375629 -22.20845192 247.93045331 -59 240 C-60.50359808 239.70545371 -62.00751124 239.41251177 -63.51171875 239.12109375 C-98.55772739 232.09610553 -128.44314369 215.23516895 -156 193 C-155.56490914 186.03854631 -150.00134416 180.76070313 -145.3125 176.0625 C-133.32142763 165.83895589 -116.86841782 161.26631261 -102 157 C-100.56476718 156.57927285 -99.1298622 156.15742549 -97.6953125 155.734375 C-96.99994385 155.52981689 -96.3045752 155.32525879 -95.58813477 155.11450195 C-94.20316457 154.70692917 -92.81823573 154.29921579 -91.43334961 153.89135742 C-90.7450708 153.68873291 -90.05679199 153.4861084 -89.34765625 153.27734375 C-88.64785645 153.07093262 -87.94805664 152.86452148 -87.22705078 152.65185547 C-85.66701763 152.19523537 -84.10534231 151.74420576 -82.54248047 151.29736328 C-67.83136662 147.73346259 -67.83136662 147.73346259 -56.84765625 138.15234375 C-55.16402857 133.87732601 -55.25922843 129.48971989 -56 125 C-57.26082701 123.03918207 -58.67453799 121.63747517 -60.3515625 120.0234375 C-63.22086284 116.50140533 -64.26918167 112.17400647 -65.62890625 107.890625 C-67.26470746 104.44192729 -68.72871836 103.80607307 -72 102 C-77.5435728 94.27126226 -80.53010119 83.44905365 -80 74 C-78.22015595 70.8640843 -77.47691793 70.15897264 -74 69 C-74.2165625 67.7625 -74.2165625 67.7625 -74.4375 66.5 C-76.95481439 50.83671048 -78.05112481 35.34377093 -69.3125 21.25 C-68.24370199 19.80646293 -67.13794484 18.38967982 -66 17 C-65.39800781 16.25105469 -64.79601562 15.50210937 -64.17578125 14.73046875 C-48.52406408 -2.76964169 -21.6378872 -7.36134307 0 0 Z " fill="#055597" transform="translate(540,383)"/>
<path d="M0 0 C2.24226993 2.09051732 4.46606897 4.19988155 6.6875 6.3125 C7.25903809 6.85003906 7.83057617 7.38757813 8.41943359 7.94140625 C48.3703266 45.6944981 72.33105803 100.14501164 73.9375 154.96484375 C74.10925523 165.95473614 73.67846327 176.48663719 71.6875 187.3125 C65.7475 187.3125 59.8075 187.3125 53.6875 187.3125 C53.29511976 190.64773203 52.97245164 193.96760612 52.6875 197.3125 C52.57277344 198.28574219 52.45804688 199.25898438 52.33984375 200.26171875 C51.77719505 208.08765067 53.8557071 212.04891805 58.83984375 218.03515625 C60.6875 220.3125 60.6875 220.3125 61.6875 223.3125 C62.3475 223.3125 63.0075 223.3125 63.6875 223.3125 C58.24246324 253.87276883 36.71079791 284.55476461 15.98828125 306.82421875 C13.99097565 308.98429288 12.08206662 311.18797945 10.1875 313.4375 C6.05918679 318.1583026 1.45614355 322.24984675 -3.3125 326.3125 C-3.84343262 326.76641113 -4.37436523 327.22032227 -4.92138672 327.68798828 C-26.05477511 345.60371052 -50.36757365 358.79936034 -76.3125 368.3125 C-77.06885742 368.59077637 -77.82521484 368.86905273 -78.60449219 369.15576172 C-137.83885847 390.63308009 -205.66789585 388.13042742 -262.96484375 361.8515625 C-283.72888897 352.08242547 -301.83186024 340.27059055 -318.73046875 324.671875 C-320.86419271 322.72214842 -323.03388411 320.85364559 -325.25 319 C-334.27339878 311.14389922 -342.01354709 301.74632451 -349.3125 292.3125 C-350.06789063 291.38695312 -350.82328125 290.46140625 -351.6015625 289.5078125 C-374.5975494 260.81758122 -396.94101752 216.92600154 -395.3125 179.3125 C-394.21550781 179.27511719 -393.11851562 179.23773438 -391.98828125 179.19921875 C-390.53382143 179.13353347 -389.07939584 179.06708701 -387.625 179 C-386.90376953 178.97744141 -386.18253906 178.95488281 -385.43945312 178.93164062 C-380.91850076 178.70456083 -378.08286466 178.03359806 -374.3125 175.3125 C-373.6525 174.9825 -372.9925 174.6525 -372.3125 174.3125 C-372.18721924 175.04138428 -372.06193848 175.77026855 -371.93286133 176.52124023 C-364.41202954 219.82827024 -349.0972118 258.90947992 -317.82324219 290.77099609 C-316.24477033 292.38160878 -314.68889546 294.01229955 -313.1328125 295.64453125 C-294.60747013 314.85816477 -271.65333053 328.67120277 -247.3125 339.3125 C-246.68182617 339.58835937 -246.05115234 339.86421875 -245.40136719 340.1484375 C-232.85422923 345.50966831 -219.63684702 348.54847464 -206.3125 351.3125 C-205.45043945 351.49474121 -204.58837891 351.67698242 -203.70019531 351.86474609 C-190.39875204 354.53726718 -177.01367232 354.59268076 -163.5 354.625 C-162.19301147 354.63064972 -162.19301147 354.63064972 -160.85961914 354.63641357 C-144.36691367 354.67253069 -128.58630674 353.1254975 -112.4375 349.625 C-111.23496582 349.36444824 -110.03243164 349.10389648 -108.79345703 348.83544922 C-98.56173786 346.52814936 -88.95903133 343.39677744 -79.3125 339.3125 C-78.5582373 339.00054688 -77.80397461 338.68859375 -77.02685547 338.3671875 C-30.54325742 319.04728867 10.02396397 283.22268989 29.88671875 236.2421875 C31.5732031 232.11385416 33.20381329 227.96644973 34.76293945 223.78833008 C35.39812188 222.08740983 36.04857027 220.39213661 36.71166992 218.7019043 C39.34763589 211.82285745 41.00158905 204.97917595 42.375 197.75 C42.69307617 196.16155273 42.69307617 196.16155273 43.01757812 194.54101562 C47.97521601 169.15853524 47.54878511 141.47498804 41.6875 116.3125 C41.36604004 114.90073486 41.36604004 114.90073486 41.03808594 113.46044922 C37.98190129 100.38380473 33.64578017 88.33315902 27.6875 76.3125 C27.34348145 75.60287109 26.99946289 74.89324219 26.64501953 74.16210938 C19.00605448 58.50668262 9.05329847 44.49265529 -2.3125 31.3125 C-3.00472656 30.4978125 -3.69695312 29.683125 -4.41015625 28.84375 C-18.28973352 12.9237993 -34.97825121 -0.25010433 -53.3125 -10.6875 C-53.93672852 -11.04408691 -54.56095703 -11.40067383 -55.20410156 -11.76806641 C-74.26503761 -22.55119035 -94.1491168 -29.26354514 -115.3125 -34.6875 C-116.01068848 -34.87183594 -116.70887695 -35.05617187 -117.42822266 -35.24609375 C-170.44872324 -49.09120963 -230.95722396 -36.43407538 -277.69824219 -9.41381836 C-291.12996935 -1.38738825 -303.0855293 8.45718074 -314.3125 19.3125 C-314.81088379 19.78510254 -315.30926758 20.25770508 -315.82275391 20.74462891 C-323.49534967 28.02812314 -330.17528484 35.69726733 -336.3125 44.3125 C-336.92689941 45.16835693 -336.92689941 45.16835693 -337.55371094 46.04150391 C-347.44104879 59.94629637 -355.92719482 75.08709666 -361.3125 91.3125 C-361.5815918 92.08948242 -361.85068359 92.86646484 -362.12792969 93.66699219 C-370.16345719 117.05502153 -372.91921793 140.66795399 -373.3125 165.3125 C-376.61968155 162.13076327 -379.43628463 158.94725277 -382.0625 155.1875 C-384.91872122 151.12120033 -387.96797045 147.4830686 -391.3125 143.8125 C-395.06236727 139.22214524 -396.35509556 136.32625239 -395.8046875 130.421875 C-395.64226562 129.39578125 -395.47984375 128.3696875 -395.3125 127.3125 C-395.15007812 126.08015625 -394.98765625 124.8478125 -394.8203125 123.578125 C-386.93181373 69.2801567 -353.02842213 18.48507679 -309.44238281 -14.08496094 C-299.49238997 -21.44805145 -289.31707403 -28.02066282 -278.3125 -33.6875 C-277.39436523 -34.16219727 -276.47623047 -34.63689453 -275.53027344 -35.12597656 C-249.26218259 -48.56288565 -220.78906508 -57.69712383 -191.3125 -60.6875 C-190.38566406 -60.79707031 -189.45882812 -60.90664062 -188.50390625 -61.01953125 C-120.47591763 -67.79522733 -50.48191877 -46.2694404 0 0 Z " fill="#04437F" transform="translate(682.3125,283.6875)"/>
<path d="M0 0 C20.13 0 40.26 0 61 0 C61.20329334 27.06025477 61.36902654 54.1198897 61.46630955 81.18071461 C61.51268371 93.74599898 61.57588928 106.31077462 61.67895508 118.87573242 C61.76876222 129.82953811 61.82674823 140.7829753 61.84679645 151.73713893 C61.85851278 157.53556392 61.88597595 163.3329349 61.95157051 169.1310215 C62.01286731 174.59370968 62.0314628 180.05491438 62.01796913 185.51791382 C62.02043595 187.51778425 62.03821739 189.5177066 62.07284927 191.51727867 C62.35208125 208.47797143 62.35208125 208.47797143 56.68223572 215.48417664 C55.15069849 217.01915892 53.59108202 218.52682829 52 220 C50.66783678 221.5457696 49.35165347 223.10568275 48.0625 224.6875 C46.41015625 226.63671875 46.41015625 226.63671875 45 228 C44.34 228 43.68 228 43 228 C41.58984375 226.3125 41.58984375 226.3125 39.9375 224 C29.88441076 210.76897139 16.00648975 203.00162244 0 199 C0 133.33 0 67.66 0 0 Z " fill="#C0290E" transform="translate(621,337)"/>
<path d="M0 0 C1.25375427 -0.01455482 1.25375427 -0.01455482 2.53283691 -0.02940369 C5.26022088 -0.05448521 7.98735565 -0.06695902 10.71484375 -0.07421875 C12.10484085 -0.07814636 12.10484085 -0.07814636 13.5229187 -0.08215332 C28.91663122 -0.08682005 43.56293988 0.98112237 58.65234375 4.23828125 C59.42707031 4.39844727 60.20179688 4.55861328 61 4.72363281 C83.57588752 9.47910822 106.8566155 18.77337079 125.65234375 32.23828125 C124.99234375 32.56828125 124.33234375 32.89828125 123.65234375 33.23828125 C122.01098633 32.52905273 122.01098633 32.52905273 120.046875 31.359375 C119.31799072 30.93543457 118.58910645 30.51149414 117.83813477 30.07470703 C117.05494873 29.61306152 116.2717627 29.15141602 115.46484375 28.67578125 C107.39002941 24.04937527 99.38554535 20.43977975 90.65234375 17.23828125 C89.29496094 16.68914062 89.29496094 16.68914062 87.91015625 16.12890625 C44.27090157 -1.11456824 -11.12299338 2.6676578 -53.7578125 20.62890625 C-84.18747091 34.27092939 -113.60285574 54.06694946 -132.34765625 82.23828125 C-132.82332031 82.95032715 -133.29898438 83.66237305 -133.7890625 84.39599609 C-143.94349227 99.73262075 -153.04891029 116.18157291 -157.34765625 134.23828125 C-156.54658447 134.18067627 -155.7455127 134.12307129 -154.92016602 134.0637207 C-130.52108474 132.53272196 -130.52108474 132.53272196 -125.625 136.546875 C-123.44914041 139.3572048 -121.91101209 142.05827336 -120.34765625 145.23828125 C-119.02853131 146.58567315 -117.69834093 147.92252807 -116.34765625 149.23828125 C-116.34765625 149.89828125 -116.34765625 150.55828125 -116.34765625 151.23828125 C-115.35765625 151.23828125 -114.36765625 151.23828125 -113.34765625 151.23828125 C-112.98607422 150.20960938 -112.98607422 150.20960938 -112.6171875 149.16015625 C-111.10664843 145.68359248 -109.12648498 142.63192916 -107.03515625 139.48828125 C-103.56484572 134.19108764 -100.2999759 128.84620501 -97.34765625 123.23828125 C-95.67703125 123.45484375 -95.67703125 123.45484375 -93.97265625 123.67578125 C-93.24175781 123.75441406 -92.51085937 123.83304687 -91.7578125 123.9140625 C-89.34765625 124.23828125 -89.34765625 124.23828125 -86.90625 124.84375 C-84.16533192 125.41423843 -82.12451313 125.65653454 -79.34765625 125.23828125 C-75.748029 122.73854011 -73.11568319 119.61099957 -70.34765625 116.23828125 C-69.22563263 114.94402827 -68.10079875 113.65220416 -66.97265625 112.36328125 C-66.42738281 111.72648437 -65.88210938 111.0896875 -65.3203125 110.43359375 C-61.19697967 105.84485504 -56.74420723 101.56327896 -52.34765625 97.23828125 C-46.27571371 99.99953586 -39.23686722 104.62249087 -36.22265625 110.73828125 C-35.78953125 111.97578125 -35.78953125 111.97578125 -35.34765625 113.23828125 C-39.37665832 111.87867101 -41.89615692 110.08841206 -44.97265625 107.17578125 C-48.25564185 104.05580111 -48.25564185 104.05580111 -52.34765625 102.23828125 C-54.76739399 104.79789602 -57.18288478 107.36148142 -59.59765625 109.92578125 C-60.27957031 110.64701172 -60.96148437 111.36824219 -61.6640625 112.11132812 C-65.05554785 115.71683925 -68.26624408 119.36143477 -71.34765625 123.23828125 C-73.00658807 124.58122606 -74.6724223 125.91572813 -76.34765625 127.23828125 C-77.33765625 128.72328125 -77.33765625 128.72328125 -78.34765625 130.23828125 C-84.39566696 129.68846209 -89.65366731 128.33398551 -95.34765625 126.23828125 C-95.61578125 126.91890625 -95.88390625 127.59953125 -96.16015625 128.30078125 C-97.50818931 131.63538934 -98.92301923 134.93571362 -100.34765625 138.23828125 C-101.00765625 138.23828125 -101.66765625 138.23828125 -102.34765625 138.23828125 C-102.58226562 138.92277344 -102.816875 139.60726562 -103.05859375 140.3125 C-104.62438248 143.86636594 -106.728181 146.90500891 -108.97265625 150.05078125 C-109.39289063 150.64826172 -109.813125 151.24574219 -110.24609375 151.86132812 C-111.27545353 153.3234869 -112.31093855 154.78133024 -113.34765625 156.23828125 C-117.54470805 154.64698199 -120.07997956 151.51767942 -122.97265625 148.23828125 C-123.9437652 147.1547281 -124.91510991 146.07138618 -125.88671875 144.98828125 C-126.69882812 144.08078125 -127.5109375 143.17328125 -128.34765625 142.23828125 C-129.33765625 141.24828125 -129.33765625 141.24828125 -130.34765625 140.23828125 C-133.2964026 139.89005959 -133.2964026 139.89005959 -134.671875 141.5234375 C-135.12175781 142.10996094 -135.57164062 142.69648438 -136.03515625 143.30078125 C-138.75293054 146.62839757 -141.6517009 149.3579269 -144.921875 152.1328125 C-148.68985659 155.40325062 -152.31713847 158.82536482 -155.95532227 162.23901367 C-160.13312411 166.13101518 -160.13312411 166.13101518 -162.34765625 167.23828125 C-162.39413266 174.67961897 -162.42960287 182.12092505 -162.45128059 189.56237888 C-162.4616883 193.01828221 -162.47579191 196.47408574 -162.49853516 199.92993164 C-162.52455595 203.9090045 -162.53415397 207.88803788 -162.54296875 211.8671875 C-162.55329132 213.0997377 -162.56361389 214.3322879 -162.57424927 215.60218811 C-162.57440033 216.76286301 -162.57455139 217.9235379 -162.57470703 219.11938477 C-162.58136887 220.641614 -162.58136887 220.641614 -162.58816528 222.19459534 C-162.39187156 225.95857922 -162.39187156 225.95857922 -160.34765625 232.23828125 C-160.01765625 222.33828125 -159.68765625 212.43828125 -159.34765625 202.23828125 C-140.86765625 202.23828125 -122.38765625 202.23828125 -103.34765625 202.23828125 C-102.78613292 222.30159899 -102.78613292 222.30159899 -102.6640625 230.8984375 C-102.58056799 236.75068316 -102.48216429 242.5998439 -102.29150391 248.44970703 C-102.1386224 253.17034018 -102.05553364 257.88766572 -102.01937485 262.61058426 C-101.99363506 264.40589112 -101.94335902 266.2010296 -101.86743546 267.99491501 C-101.31053807 281.70677595 -101.31053807 281.70677595 -104.73018646 285.95633698 C-107.57080228 288.5400119 -110.63003736 290.49722911 -113.97921753 292.35562134 C-120.57787201 296.04368673 -123.88729738 301.71683569 -127.34765625 308.23828125 C-142.11953836 302.05093589 -156.93136748 272.65897939 -162.97265625 258.42578125 C-163.77218137 256.36631483 -164.56303229 254.30347073 -165.34765625 252.23828125 C-165.90491887 250.86611516 -166.4650118 249.49509642 -167.02734375 248.125 C-170.08510764 240.60334722 -172.89084785 233.03729922 -175.16015625 225.23828125 C-175.35480469 224.60067871 -175.54945313 223.96307617 -175.75 223.30615234 C-179.75253458 208.83572141 -179.75936654 193.26677146 -179.72265625 178.36328125 C-179.72178009 177.4864267 -179.72090393 176.60957214 -179.72000122 175.70614624 C-179.67757158 162.81296701 -179.156221 150.64192367 -175.34765625 138.23828125 C-175.1062793 137.40458008 -174.86490234 136.57087891 -174.61621094 135.71191406 C-168.03248492 113.21130578 -157.74443999 93.26927936 -143.47143555 74.7043457 C-141.35630394 71.952348 -139.38320222 69.29875765 -137.62109375 66.30078125 C-136.34765625 64.23828125 -136.34765625 64.23828125 -134.28515625 63.73828125 C-133.32609375 63.49078125 -133.32609375 63.49078125 -132.34765625 63.23828125 C-132.10015625 62.53703125 -131.85265625 61.83578125 -131.59765625 61.11328125 C-129.65086419 56.6356595 -126.06664858 54.29828418 -122.34765625 51.23828125 C-121.32344202 50.35788138 -120.30143621 49.47490805 -119.28125 48.58984375 C-112.89129121 43.06512224 -106.44008039 37.85159057 -99.34765625 33.23828125 C-98.37570312 32.6040625 -97.40375 31.96984375 -96.40234375 31.31640625 C-72.93025484 16.43729338 -44.43718435 3.6100989 -16.41015625 1.67578125 C-10.81570182 1.28135209 -5.67186221 0.05373411 0 0 Z " fill="#9AB3C9" transform="translate(503.34765625,257.76171875)"/>
<path d="M0 0 C20.46 0 40.92 0 62 0 C62 79.86 62 159.72 62 242 C54.45335023 240.32296672 47.3348462 238.35354878 40 236 C39.24283691 235.76200684 38.48567383 235.52401367 37.70556641 235.27880859 C35.25875031 234.50832391 32.81658212 233.72439765 30.375 232.9375 C29.20142944 232.56963379 29.20142944 232.56963379 28.00415039 232.19433594 C27.26801514 231.95360352 26.53187988 231.71287109 25.7734375 231.46484375 C24.78996338 231.14954712 24.78996338 231.14954712 23.78662109 230.82788086 C21.67380141 229.84884676 20.46680387 228.80369739 19 227 C18.5625 224.125 18.5625 224.125 19 221 C20.31037934 219.31522656 21.64843325 217.65191491 23 216 C23.66721021 214.43398596 24.28813183 212.84785957 24.875 211.25 C26.56281674 206.77563092 28.76347565 203.18691883 31.484375 199.27734375 C38.41781088 188.85932025 43.03818272 176.6463621 41 164 C40.33419922 163.08307373 39.66839844 162.16614746 38.98242188 161.22143555 C36.68924641 157.49502542 36.58357913 155.69511853 36.78515625 151.37890625 C36.82439209 150.12045898 36.86362793 148.86201172 36.90405273 147.56542969 C36.93103241 146.91070679 36.95801208 146.25598389 36.98580933 145.5814209 C37.61083324 129.12734928 35.98796742 116.07065405 25 103 C24.50113281 102.37867188 24.00226562 101.75734375 23.48828125 101.1171875 C17.28493224 94.14818584 8.21870461 90.1093523 0 86 C0 57.62 0 29.24 0 0 Z " fill="#EEA116" transform="translate(548,289)"/>
<path d="M0 0 C3.99648753 1.81611081 5.74610766 3.94695779 8.375 7.5 C9.26085869 8.68293623 10.14762929 9.86518993 11.03515625 11.046875 C11.51098145 11.68431641 11.98680664 12.32175781 12.47705078 12.97851562 C15.20913459 16.604943 18.01621566 20.17300756 20.8125 23.75 C25.43599667 29.67846027 30.01481405 35.63826029 34.5625 41.625 C39.44411789 48.04664766 44.46145337 54.34288879 49.59985352 60.56103516 C59 71.98205514 59 71.98205514 59 74 C49.1 74 39.2 74 29 74 C29 105.35 29 136.7 29 169 C11.51 169 -5.98 169 -24 169 C-24 137.65 -24 106.3 -24 74 C-34.56 74 -45.12 74 -56 74 C-54.223648 70.44729601 -52.38928144 67.70696503 -50 64.5625 C-49.60192139 64.03736816 -49.20384277 63.51223633 -48.79370117 62.97119141 C-47.53302319 61.31112238 -46.26717391 59.65511428 -45 58 C-43.84951172 56.49373047 -43.84951172 56.49373047 -42.67578125 54.95703125 C-36.10967055 46.39395466 -29.47484774 37.88403632 -22.84521484 29.37011719 C-19.74947688 25.39374458 -16.65610662 21.41553085 -13.5625 17.4375 C-12.45964651 16.01952262 -11.35678228 14.60155359 -10.25390625 13.18359375 C-9.72941895 12.50925293 -9.20493164 11.83491211 -8.66455078 11.14013672 C-5.77636719 7.42675781 -2.88818359 3.71337891 0 0 Z " fill="#4CA137" transform="translate(244,380)"/>
<path d="M0 0 C9.10986025 4.2346616 16.47303247 17.94532272 22.39550781 25.80664062 C24.84738309 29.05093573 27.32903763 32.27204748 29.8125 35.4921875 C30.63155583 36.55595462 31.45057125 37.61975286 32.26953125 38.68359375 C32.84058594 39.42480469 33.41164063 40.16601562 34 40.9296875 C32.16063756 45.72666114 28.55466082 47.30893907 24.3125 49.85546875 C21.69354884 51.8270848 21.69354884 51.8270848 21.0625 55.37109375 C19.75432584 59.75251528 17.68946376 61.21869133 14 63.5546875 C12.72180325 64.41540128 11.44450241 65.2774466 10.16796875 66.140625 C9.48911621 66.59147461 8.81026367 67.04232422 8.11083984 67.50683594 C4.44790474 69.9759067 0.88569491 72.58323614 -2.6875 75.1796875 C-3.44232666 75.72520264 -4.19715332 76.27071777 -4.97485352 76.83276367 C-15.36372671 84.34451648 -25.66563152 91.97538956 -35.96484375 99.609375 C-40.63152895 103.06556377 -45.30956114 106.50580632 -50 109.9296875 C-50.64791504 110.40374023 -51.29583008 110.87779297 -51.96337891 111.36621094 C-62.01035394 118.67649998 -70.11122916 123.90129467 -83 121.9296875 C-93.37414897 118.15852549 -100.87567419 110.8278948 -105.9921875 101.203125 C-109.42177311 93.46661792 -110.57263083 85.10788003 -108.453125 76.78125 C-104.21696739 68.26897104 -94.49783004 62.43013493 -86.93237305 57.13989258 C-81.4965463 53.32873031 -76.21011515 49.33794231 -70.9375 45.3046875 C-69.60211182 44.2839917 -69.60211182 44.2839917 -68.23974609 43.24267578 C-64.58953363 40.44972501 -60.94241694 37.65275171 -57.29589844 34.85498047 C-51.21395585 30.19097528 -45.11743017 25.54705817 -39 20.9296875 C-37.72672852 19.96579102 -37.72672852 19.96579102 -36.42773438 18.98242188 C-33.98209778 17.13925157 -31.52473776 15.31309822 -29.0625 13.4921875 C-28.33522705 12.94216064 -27.6079541 12.39213379 -26.85864258 11.82543945 C-22.9164915 8.94158397 -20.0197049 7.24110198 -15 6.9296875 C-10.1425138 6.54620175 -7.54884172 4.18948415 -3.96484375 1.109375 C-2 -0.0703125 -2 -0.0703125 0 0 Z " fill="#023369" transform="translate(334,589.0703125)"/>
<path d="M0 0 C17.16 0 34.32 0 52 0 C52 30.36 52 60.72 52 92 C62.56 92 73.12 92 84 92 C82.07675213 95.20541312 80.37038899 97.94733705 78.1015625 100.828125 C77.54645996 101.53670654 76.99135742 102.24528809 76.41943359 102.9753418 C75.53118896 104.10129761 75.53118896 104.10129761 74.625 105.25 C73.35872789 106.86537836 72.09311814 108.48127613 70.828125 110.09765625 C70.18810547 110.91508301 69.54808594 111.73250977 68.88867188 112.57470703 C66.02138251 116.25666833 63.19882161 119.97217106 60.375 123.6875 C55.84965634 129.63119421 51.23902217 135.4956667 46.54101562 141.30371094 C43.778556 144.73202238 41.07841538 148.19769218 38.4296875 151.71484375 C37.83671875 152.50117187 37.24375 153.2875 36.6328125 154.09765625 C35.47876472 155.63382208 34.33013524 157.17407643 33.1875 158.71875 C32.66929687 159.40839844 32.15109375 160.09804688 31.6171875 160.80859375 C31.15940918 161.42532959 30.70163086 162.04206543 30.22998047 162.67749023 C29.82408691 163.11391846 29.41819336 163.55034668 29 164 C28.34 164 27.68 164 27 164 C25.17325829 161.72270287 23.45273096 159.43039872 21.75 157.0625 C17.31500049 151.01569884 12.73647756 145.13720847 7.9375 139.375 C3.6321855 134.20179251 -0.61590937 128.99874539 -4.75 123.6875 C-8.92024654 118.33506473 -13.2050449 113.10108648 -17.56640625 107.90234375 C-20.07980431 104.90482408 -22.57641827 101.89521619 -25.0625 98.875 C-26.16271484 97.54082031 -26.16271484 97.54082031 -27.28515625 96.1796875 C-29 94 -29 94 -30 92 C-20.1 92 -10.2 92 0 92 C0 61.64 0 31.28 0 0 Z " fill="#C62B0C" transform="translate(772,399)"/>
<path d="M0 0 C6.43008226 3.61692127 6.43008226 3.61692127 8.89453125 5.2734375 C18.11475616 11.47033001 28.13866144 12.66972078 39 14 C37.51874524 17.54075337 35.52234408 19.51352255 32.6875 22.0625 C25.58851527 29.11568483 22.61117882 35.89407293 22.4375 45.9375 C22.42526378 57.76992942 27.78281445 67.93149637 33.0625 78.25 C39.11209507 90.44161955 42 100.30745147 42 114 C48.93 114 55.86 114 63 114 C63 114.33 63 114.66 63 115 C40.90100782 118.72754085 16.92459092 118.7258665 -5 114 C-6.50359808 113.70545371 -8.00751124 113.41251177 -9.51171875 113.12109375 C-34.24010901 108.16427678 -58.49755898 98.48781916 -79.30908203 84.15332031 C-80.51428091 83.33129324 -81.74222515 82.5422062 -82.98388672 81.77636719 C-87.82763545 78.66365513 -87.82763545 78.66365513 -88.65234375 75.48828125 C-86.22137788 66.2156749 -75.50142159 57.81404969 -67.67578125 52.921875 C-64.16250998 50.9761644 -60.60764834 49.76292556 -56.75 48.625 C-55.34231985 48.20094573 -53.93477354 47.77644697 -52.52734375 47.3515625 C-51.79241699 47.13274414 -51.05749023 46.91392578 -50.30029297 46.68847656 C-25.10122038 40.45987318 -25.10122038 40.45987318 -4.5625 26.0625 C-1.49351427 20.04728798 -0.66622133 14.19385238 -0.375 7.5625 C-0.33632813 6.83095703 -0.29765625 6.09941406 -0.2578125 5.34570312 C-0.16466016 3.56416468 -0.08129714 1.78211878 0 0 Z " fill="#023268" transform="translate(486,509)"/>
<path d="M0 0 C14.19 0 28.38 0 43 0 C42.67 2.64 42.34 5.28 42 8 C41.96760966 10.00109121 41.97906946 12.00357326 42.04296875 14.00390625 C42.07487305 15.60975586 42.07487305 15.60975586 42.10742188 17.24804688 C42.16090919 19.46189971 42.22605963 21.67550079 42.30273438 23.88867188 C42.45015143 32.94663082 42.45015143 32.94663082 39.98828125 36.71484375 C36.2836003 42.83593742 37.78029767 49.300074 39.42211914 55.98876953 C39.63344482 56.77622559 39.84477051 57.56368164 40.0625 58.375 C40.28220459 59.20499512 40.50190918 60.03499023 40.72827148 60.89013672 C42.68846846 67.80109624 45.83531925 73.16747316 50 79 C55.45899106 87.28425836 54.36996829 96.47331648 54 106 C44.23479896 109.34762816 34.40486755 112.42129766 24.52050781 115.39697266 C17.51959934 117.51306646 10.58110292 119.76612319 3.66796875 122.15234375 C1 123 1 123 -1 123 C-1.083408 96.93098985 -0.85639249 70.87016554 -0.53643799 44.80328369 C-0.46359591 38.82449855 -0.39392591 32.84567559 -0.32368469 26.86685944 C-0.21813514 17.91120948 -0.10871763 8.95561456 0 0 Z " fill="#399434" transform="translate(412,414)"/>
<path d="M0 0 C18.48 0 36.96 0 56 0 C56.56152333 20.06331774 56.56152333 20.06331774 56.68359375 28.66015625 C56.76708826 34.51240191 56.86549196 40.36156265 57.05615234 46.21142578 C57.20903385 50.93205893 57.29212261 55.64938447 57.3282814 60.37230301 C57.35402119 62.16760987 57.40429723 63.96274835 57.48022079 65.75663376 C58.03711818 79.4684947 58.03711818 79.4684947 54.61746979 83.71805573 C51.77685397 86.30173065 48.71761889 88.25894786 45.36843872 90.11734009 C38.76978424 93.80540548 35.46035887 99.47855444 32 106 C24.02926281 102.66137982 18.90626265 92.59225156 14 85.75 C13.52626953 85.09636475 13.05253906 84.44272949 12.56445312 83.76928711 C10.99058725 81.54435969 9.49610326 79.2781009 8 77 C6.99628357 75.51882187 6.99628357 75.51882187 5.97229004 74.00772095 C0.37502634 65.13979713 -1.11808147 58.50373464 -0.78125 47.8515625 C-0.76627564 46.45912985 -0.75491329 45.06665421 -0.74694824 43.67416382 C-0.716818 40.05962779 -0.63862041 36.4477828 -0.54931641 32.83428955 C-0.46655858 29.12688229 -0.43030519 25.41901469 -0.390625 21.7109375 C-0.30982887 14.47160427 -0.15321903 7.23959905 0 0 Z " fill="#2B8C36" transform="translate(344,460)"/>
<path d="M0 0 C12.11704856 12.11704856 18.00358412 31.6150832 22.38696289 47.77368164 C22.82410156 49.36120356 23.281238 50.94327537 23.75170898 52.52124023 C30.03146155 74.09827532 29.96114866 96.54347201 27.25 118.625 C27.09329834 119.92397217 26.93659668 121.22294434 26.77514648 122.5612793 C25.20364519 134.44429889 22.16934656 145.73872259 17.75 156.875 C17.45552979 157.62330078 17.16105957 158.37160156 16.85766602 159.14257812 C12.25442984 170.59459036 6.64153695 181.59426853 0 192 C-0.40347656 192.639375 -0.80695312 193.27875 -1.22265625 193.9375 C-2.11260275 195.31548168 -3.04988166 196.66279641 -4 198 C-4.33 198 -4.66 198 -5 198 C-5 140.25 -5 82.5 -5 23 C-3.35 23 -1.7 23 0 23 C0 15.41 0 7.82 0 0 Z " fill="#AED6EF" transform="translate(687,347)"/>
<path d="M0 0 C0.33 0 0.66 0 1 0 C1 15.84 1 31.68 1 48 C3.31 48 5.62 48 8 48 C8 39.09 8 30.18 8 21 C8.33 21 8.66 21 9 21 C9 61.92 9 102.84 9 145 C3.06 146.98 3.06 146.98 -3 149 C-3 121.94 -3 94.88 -3 67 C-21.48 67 -39.96 67 -59 67 C-59 77.56 -59 88.12 -59 99 C-66.42359329 91.57640671 -63.77515395 74.9540714 -63.91992188 65.35083008 C-63.96442533 62.6649494 -64.04784523 59.98465552 -64.16601562 57.30102539 C-65.12756271 33.74746625 -65.12756271 33.74746625 -59.97070312 27.6496582 C-57.12684045 24.97329767 -54.05591304 22.92201697 -50.66061401 21.01150513 C-48.24340272 19.53914514 -46.41688906 17.62571273 -44.5 15.5625 C-42.29895298 13.28588055 -40.08763963 11.17882104 -37.625 9.1875 C-34.85425677 7.08914751 -34.85425677 7.08914751 -33 4 C-28.80508557 4.5049434 -26.86515562 6.79749207 -24 9.75 C-22.7315625 11.04164063 -22.7315625 11.04164063 -21.4375 12.359375 C-19 15 -19 15 -16.8125 17.828125 C-16.214375 18.54484375 -15.61625 19.2615625 -15 20 C-14.34 20 -13.68 20 -13 20 C-11.70892807 18.38528286 -11.70892807 18.38528286 -10.46875 16.28125 C-9.74751953 15.13076172 -9.74751953 15.13076172 -9.01171875 13.95703125 C-8.51285156 13.14621094 -8.01398438 12.33539063 -7.5 11.5 C-6.51694359 9.90221581 -5.5276795 8.30822869 -4.53125 6.71875 C-4.09361328 6.00654297 -3.65597656 5.29433594 -3.20507812 4.56054688 C-2.60856445 3.78807617 -2.60856445 3.78807617 -2 3 C-1.34 3 -0.68 3 0 3 C0 2.01 0 1.02 0 0 Z " fill="#D9EBF6" transform="translate(403,393)"/>
<path d="M0 0 C6.07194254 2.76125461 13.11078903 7.38420962 16.125 13.5 C16.558125 14.7375 16.558125 14.7375 17 16 C12.97099793 14.64038976 10.45149933 12.85013081 7.375 9.9375 C4.0920144 6.81751986 4.0920144 6.81751986 0 5 C-2.41973774 7.55961477 -4.83522853 10.12320017 -7.25 12.6875 C-7.93191406 13.40873047 -8.61382812 14.12996094 -9.31640625 14.87304688 C-12.7078916 18.478558 -15.91858783 22.12315352 -19 26 C-20.65893182 27.34294481 -22.32476605 28.67744688 -24 30 C-24.99 31.485 -24.99 31.485 -26 33 C-32.04801071 32.45018084 -37.30601106 31.09570426 -43 29 C-43.268125 29.680625 -43.53625 30.36125 -43.8125 31.0625 C-45.16053306 34.39710809 -46.57536298 37.69743237 -48 41 C-48.66 41 -49.32 41 -50 41 C-50.23460937 41.68449219 -50.46921875 42.36898437 -50.7109375 43.07421875 C-52.27672623 46.62808469 -54.38052475 49.66672766 -56.625 52.8125 C-57.04523438 53.40998047 -57.46546875 54.00746094 -57.8984375 54.62304688 C-58.92779728 56.08520565 -59.9632823 57.54304899 -61 59 C-65.1970518 57.40870074 -67.73232331 54.27939817 -70.625 51 C-71.59610895 49.91644685 -72.56745366 48.83310493 -73.5390625 47.75 C-74.35117187 46.8425 -75.16328125 45.935 -76 45 C-76.66 44.34 -77.32 43.68 -78 43 C-80.94874635 42.65177834 -80.94874635 42.65177834 -82.32421875 44.28515625 C-82.99904297 45.16494141 -82.99904297 45.16494141 -83.6875 46.0625 C-86.40527429 49.39011632 -89.30404465 52.11964565 -92.57421875 54.89453125 C-96.34220034 58.16496937 -99.96948222 61.58708357 -103.60766602 65.00073242 C-107.78546786 68.89273393 -107.78546786 68.89273393 -110 70 C-110.0698268 77.40676057 -110.12297582 84.81344896 -110.15543652 92.22047329 C-110.17102416 95.66069184 -110.19213408 99.10068348 -110.22631836 102.54077148 C-110.26546007 106.50501697 -110.27976629 110.46917387 -110.29296875 114.43359375 C-110.30845261 115.65582138 -110.32393646 116.87804901 -110.33988953 118.13731384 C-110.34109104 124.29101574 -109.89768328 129.26687326 -107.67753601 135.01060486 C-106.60630171 138.15598499 -106.66419274 141.14284062 -106.70703125 144.44140625 C-106.71127609 145.09455307 -106.71552094 145.74769989 -106.71989441 146.42063904 C-106.73643557 148.46837992 -106.7740335 150.51506629 -106.8125 152.5625 C-106.82757889 153.96678247 -106.84126161 155.37108066 -106.85351562 156.77539062 C-106.88865594 160.18400115 -106.93785877 163.5917927 -107 167 C-110.22307727 165.38846136 -110.66488684 161.98461964 -111.8125 158.75 C-112.3481798 157.27315488 -112.88464778 155.79659543 -113.421875 154.3203125 C-113.68806641 153.58458008 -113.95425781 152.84884766 -114.22851562 152.09082031 C-115.27892561 149.24407629 -116.42571224 146.43818997 -117.5625 143.625 C-119.49150125 138.57848382 -121.1705369 133.49503541 -122.6875 128.3125 C-122.99119507 127.32660889 -122.99119507 127.32660889 -123.30102539 126.32080078 C-127.39496763 111.76418248 -127.40398317 96.13255766 -127.375 81.125 C-127.37578552 80.25379517 -127.37657104 79.38259033 -127.37738037 78.48498535 C-127.3463271 49.69265419 -127.3463271 49.69265419 -121 37 C-117.04 37.33 -113.08 37.66 -109 38 C-107.87519739 46.43601959 -108.39462488 53.65470287 -110 62 C-104.0976918 60.63095463 -100.88745777 57.54175981 -96.6875 53.4375 C-96.03104492 52.81214355 -95.37458984 52.18678711 -94.69824219 51.54248047 C-90.26207678 47.29743494 -85.93567956 42.95469721 -81.734375 38.4765625 C-80 37 -80 37 -77 37 C-74.87890625 39.265625 -74.87890625 39.265625 -72.5625 42.25 C-70.36741973 45.05791993 -68.26419356 47.74167741 -65.71484375 50.234375 C-64 52 -64 52 -64 54 C-63.01 54 -62.02 54 -61 54 C-60.63841797 52.97132813 -60.63841797 52.97132813 -60.26953125 51.921875 C-58.75899218 48.44531123 -56.77882873 45.39364791 -54.6875 42.25 C-51.21718947 36.95280639 -47.95231965 31.60792376 -45 26 C-43.329375 26.2165625 -43.329375 26.2165625 -41.625 26.4375 C-40.52865234 26.55544922 -40.52865234 26.55544922 -39.41015625 26.67578125 C-37 27 -37 27 -34.55859375 27.60546875 C-31.81767567 28.17595718 -29.77685688 28.41825329 -27 28 C-23.40037275 25.50025886 -20.76802694 22.37271832 -18 19 C-16.87797638 17.70574702 -15.7531425 16.41392291 -14.625 15.125 C-13.80708984 14.16980469 -13.80708984 14.16980469 -12.97265625 13.1953125 C-8.84932342 8.60657379 -4.39655098 4.32499771 0 0 Z " fill="#96B8D2" transform="translate(451,355)"/>
<path d="M0 0 C20.13 0 40.26 0 61 0 C61 11.22 61 22.44 61 34 C47.3125 33.8125 47.3125 33.8125 43.08325195 33.72973633 C31.2629941 33.65239277 20.78732257 35.40555521 10.375 41.125 C3.15 44.95 3.15 44.95 0 46 C0 30.82 0 15.64 0 0 Z " fill="#92C92E" transform="translate(476,337)"/>
<path d="M0 0 C0.33 0 0.66 0 1 0 C1 65.34 1 130.68 1 198 C-3.29 197.01 -7.58 196.02 -12 195 C-11.34 194.67 -10.68 194.34 -10 194 C-10 140.87 -10 87.74 -10 33 C-6.7 33 -3.4 33 0 33 C0 22.11 0 11.22 0 0 Z " fill="#DBE8EF" transform="translate(620,337)"/>
<path d="M0 0 C0.4125 0.38671875 0.825 0.7734375 1.25 1.171875 C7.79801322 7.07677978 14.26018869 9.86732908 22.66015625 12.2578125 C31.08888397 14.70023667 39.45072924 17.31601813 47.78442383 20.06469727 C49.3031754 20.56324362 50.82370238 21.05641356 52.34594727 21.54418945 C69.97238436 27.19453507 88.45127392 33.90810863 99.13671875 49.921875 C100 52 100 52 99.9921875 53.96875 C98.48085071 57.06282532 96.1292259 58.64612229 93.4375 60.75 C92.42558594 61.54921875 91.41367187 62.3484375 90.37109375 63.171875 C89.58863281 63.77515625 88.80617188 64.3784375 88 65 C86 64 86 64 84.4375 60.5 C77.4809452 46.46177252 62.20057419 39.9764756 48.12280273 35.13671875 C42.24359692 33.19533539 36.32739049 31.38908413 30.390625 29.6328125 C23.3475686 27.53557882 16.91692677 25.52826029 11 21 C10.113125 20.401875 9.22625 19.80375 8.3125 19.1875 C2.93329355 14.09906147 0.50416612 9.06665789 0.04296875 1.6875 C0.02878906 1.130625 0.01460937 0.57375 0 0 Z " fill="#0763AB" transform="translate(556,521)"/>
<path d="M0 0 C1.875 1.6875 1.875 1.6875 3 4 C2.77419164 7.07154896 2.42968335 8.55978519 0.25683594 10.78588867 C-0.86803223 11.59376831 -0.86803223 11.59376831 -2.015625 12.41796875 C-2.84779541 13.02713135 -3.67996582 13.63629395 -4.53735352 14.26391602 C-5.88011353 15.21609009 -5.88011353 15.21609009 -7.25 16.1875 C-9.09812858 17.53320574 -10.94578539 18.8795596 -12.79296875 20.2265625 C-13.69321777 20.87657227 -14.5934668 21.52658203 -15.52099609 22.19628906 C-18.58504544 24.42567616 -21.57584757 26.73050938 -24.5625 29.0625 C-35.81447169 37.75457582 -47.2887186 46.18019344 -58.91796875 54.36083984 C-61.98573593 56.5257401 -64.98754422 58.75011341 -67.94921875 61.05859375 C-68.94743652 61.82490112 -68.94743652 61.82490112 -69.96582031 62.60668945 C-71.24286734 63.59009156 -72.50995552 64.58662067 -73.76464844 65.59838867 C-77.90729745 68.76390039 -80.6215003 69.6203423 -86 69 C-86.66 68.67 -87.32 68.34 -88 68 C-88.32180866 64.95600656 -88.38806621 63.50179255 -86.48046875 61.03515625 C-78.50649422 54.17509299 -70.05131117 48.01296555 -61.53759766 41.84375 C-57.42517736 38.85577635 -53.33886926 35.8325741 -49.25 32.8125 C-44.15543389 29.05614269 -39.05625147 25.30626049 -33.94848633 21.56787109 C-28.80032752 17.79988534 -23.66633943 14.01537957 -18.5625 10.1875 C-17.12390625 9.11242187 -17.12390625 9.11242187 -15.65625 8.015625 C-13.97141747 6.73713443 -12.30241575 5.43728204 -10.65625 4.109375 C-9.9653125 3.55765625 -9.274375 3.0059375 -8.5625 2.4375 C-7.98628906 1.96183594 -7.41007812 1.48617187 -6.81640625 0.99609375 C-4.40658039 -0.32542366 -2.70681962 -0.29143572 0 0 Z " fill="#0996DC" transform="translate(322,607)"/>
<path d="M0 0 C1.0528418 0.02707031 1.0528418 0.02707031 2.12695312 0.0546875 C3.85605436 0.10173787 5.58445205 0.17348127 7.3125 0.25 C6.10040467 4.23837081 4.6823607 7.55563212 2.4375 11.0625 C-3.89210307 21.382505 -8.75067546 33.50270182 -11.6875 45.25 C-3.4375 45.25 4.8125 45.25 13.3125 45.25 C7.57887816 51.93922548 1.61962843 58.131111 -4.6875 64.25 C-5.3990625 64.94480469 -6.110625 65.63960938 -6.84375 66.35546875 C-11.02453518 70.21536033 -11.02453518 70.21536033 -14.37890625 70.390625 C-15.14074219 70.34421875 -15.90257812 70.2978125 -16.6875 70.25 C-16.6153125 69.27160156 -16.543125 68.29320312 -16.46875 67.28515625 C-15.9714369 60.26060871 -15.56388412 53.2961054 -15.6875 46.25 C-19.6475 46.25 -23.6075 46.25 -27.6875 46.25 C-25.96417321 31.14668655 -18.1245979 17.26792362 -10.6875 4.25 C-10.25179688 3.4146875 -9.81609375 2.579375 -9.3671875 1.71875 C-6.61483479 -0.68795841 -3.45603803 -0.16780017 0 0 Z " fill="#8CAFCB" transform="translate(357.6875,346.75)"/>
<path d="M0 0 C1.07121094 0.65548828 1.07121094 0.65548828 2.1640625 1.32421875 C4.93233605 3.02097703 4.93233605 3.02097703 7.7109375 4.26953125 C11.12416063 6.24639802 12.86876108 7.63113218 15 11 C16.01799903 18.27081906 14.95757845 25.76496281 14 33 C14.99 33.495 14.99 33.495 16 34 C15.01 34.495 15.01 34.495 14 35 C12.86649466 37.01669827 12.86649466 37.01669827 12 39 C12 37.35 12 35.7 12 34 C2.43 34 -7.14 34 -17 34 C-17 38.62 -17 43.24 -17 48 C-17.33 48 -17.66 48 -18 48 C-18 43.38 -18 38.76 -18 34 C-27.57 34 -37.14 34 -47 34 C-45.74646003 30.86615008 -44.53924548 27.96854486 -43 25 C-42.443125 25.13277344 -41.88625 25.26554687 -41.3125 25.40234375 C-39.71695492 25.77158307 -38.11764462 26.12479242 -36.515625 26.46484375 C-34.93577088 26.80093073 -33.36121063 27.16422776 -31.796875 27.56640625 C-29.48728374 28.12952094 -29.48728374 28.12952094 -26 28 C-23.92063106 25.96898847 -22.58840715 24.34426987 -21 22 C-19.35570171 20.31126121 -17.68615782 18.64694485 -16 17 C-11.24672829 12.34722029 -6.68327899 7.61311062 -2.34765625 2.56640625 C-1.59150381 1.68751602 -0.81982149 0.81982149 0 0 Z " fill="#FBFCFD" transform="translate(451,359)"/>
<path d="M0 0 C0.33 0 0.66 0 1 0 C1 3.96 1 7.92 1 12 C5.62 12 10.24 12 15 12 C15 28.17 15 44.34 15 61 C16.32 61.33 17.64 61.66 19 62 C20.46098845 64.9219769 20.11134901 67.49893475 20.09765625 70.7578125 C20.0962413 71.42086395 20.09482635 72.08391541 20.09336853 72.76705933 C20.08776754 74.88641863 20.075215 77.00567259 20.0625 79.125 C20.05748512 80.56119639 20.05292219 81.99739444 20.04882812 83.43359375 C20.03779782 86.95576345 20.02053259 90.47787145 20 94 C16.77692273 92.38846136 16.33511316 88.98461964 15.1875 85.75 C14.6518202 84.27315488 14.11535222 82.79659543 13.578125 81.3203125 C13.31193359 80.58458008 13.04574219 79.84884766 12.77148438 79.09082031 C11.72107439 76.24407629 10.57428776 73.43818997 9.4375 70.625 C0.46344673 47.14771871 -0.346685 24.95598604 0 0 Z " fill="#8AB2D1" transform="translate(324,428)"/>
<path d="M0 0 C9.57 0 19.14 0 29 0 C29 9.24 29 18.48 29 28 C19.43 28 9.86 28 0 28 C0 18.76 0 9.52 0 0 Z " fill="#FBFCFD" transform="translate(434,293)"/>
<path d="M0 0 C1.83198247 2.7479737 3.19914452 5.40380394 4.625 8.375 C12.8047981 24.85430056 23.47055249 41.59061556 39 52 C40.32 51.34 41.64 50.68 43 50 C42.13375 50.94875 41.2675 51.8975 40.375 52.875 C36.62965751 57.21781379 33.82235671 62.02584651 31 67 C21.34617171 62.95640087 14.14864226 48.52628454 8.42773438 40.10009766 C7.52192022 38.76770823 6.60752198 37.44108223 5.68164062 36.12255859 C-0.88642761 26.67508684 -2.08001966 19.18851832 -1 8 C-0.91621094 7.07960938 -0.83242188 6.15921875 -0.74609375 5.2109375 C-0.55198216 3.46701434 -0.28846974 1.73081844 0 0 Z " fill="#096B34" transform="translate(345,499)"/>
<path d="M0 0 C9.24 0 18.48 0 28 0 C28 8.91 28 17.82 28 27 C18.76 27 9.52 27 0 27 C0 18.09 0 9.18 0 0 Z " fill="#FDFDFE" transform="translate(495,294)"/>
<path d="M0 0 C9.24 0 18.48 0 28 0 C28 8.91 28 17.82 28 27 C18.76 27 9.52 27 0 27 C0 18.09 0 9.18 0 0 Z " fill="#FDFDFE" transform="translate(465,294)"/>
<path d="M0 0 C9.57 0 19.14 0 29 0 C29 8.25 29 16.5 29 25 C19.43 25 9.86 25 0 25 C0 16.75 0 8.5 0 0 Z " fill="#FCFDFD" transform="translate(434,322)"/>
<path d="M0 0 C0.33 0 0.66 0 1 0 C1 25.41 1 50.82 1 77 C-3.29 76.01 -7.58 75.02 -12 74 C-11.01 73.505 -11.01 73.505 -10 73 C-10 53.53 -10 34.06 -10 14 C-6.7 14 -3.4 14 0 14 C0 9.38 0 4.76 0 0 Z " fill="#B3CDDE" transform="translate(620,458)"/>
<path d="M0 0 C3.34636002 3.25275555 6.3595445 6.58875637 9.25 10.25 C15.78178866 18.30912233 23.11315003 25.29149094 31 32 C32.04859461 32.91228072 33.09673609 33.82508243 34.14453125 34.73828125 C35.28350307 35.72176092 36.42282712 36.70483282 37.5625 37.6875 C38.09262695 38.15140137 38.62275391 38.61530273 39.16894531 39.09326172 C42.88721211 42.2742928 46.68993913 44.67919799 51 47 C43.91497976 54.48987854 43.91497976 54.48987854 38.5 55.4375 C32.86348982 54.45111072 29.61445341 49.46955123 26.375 45.125 C25.49676505 43.96043095 24.61783437 42.79638631 23.73828125 41.6328125 C23.06273193 40.7341748 23.06273193 40.7341748 22.37353516 39.81738281 C16.4541431 31.9851833 10.33654127 24.31086406 4 16.8125 C3.54310791 16.27173828 3.08621582 15.73097656 2.61547852 15.17382812 C0.87840791 13.13504036 -0.84814277 11.1452114 -2.78515625 9.29296875 C-4 8 -4 8 -4.4375 5.5 C-4 3 -4 3 -2 1.1875 C-1.34 0.795625 -0.68 0.40375 0 0 Z " fill="#97ACBF" transform="translate(336,579)"/>
<path d="M0 0 C9.24 0 18.48 0 28 0 C28 7.92 28 15.84 28 24 C18.76 24 9.52 24 0 24 C0 16.08 0 8.16 0 0 Z " fill="#F1F9FC" transform="translate(374,417)"/>
<path d="M0 0 C8.91 0 17.82 0 27 0 C27 7.92 27 15.84 27 24 C18.09 24 9.18 24 0 24 C0 16.08 0 8.16 0 0 Z " fill="#FDFEFE" transform="translate(405,323)"/>
<path d="M0 0 C5.259375 0.1546875 5.259375 0.1546875 10.625 0.3125 C10.625 7.9025 10.625 15.4925 10.625 23.3125 C1.385 23.3125 -7.855 23.3125 -17.375 23.3125 C-17.49875 20.445625 -17.6225 17.57875 -17.75 14.625 C-17.80462402 13.73079346 -17.85924805 12.83658691 -17.91552734 11.9152832 C-18.00534696 7.60925347 -17.73149504 5.78461506 -15.0625 2.25 C-10.53085261 -0.85084775 -5.2611277 -0.21892305 0 0 Z " fill="#EEF7FC" transform="translate(361.375,416.6875)"/>
<path d="M0 0 C0.74362793 0.01047363 1.48725586 0.02094727 2.25341797 0.03173828 C3.34227295 0.03923096 3.34227295 0.03923096 4.453125 0.046875 C5.37464355 0.06508301 6.29616211 0.08329102 7.24560547 0.10205078 C10.17435547 0.14330078 13.10310547 0.18455078 16.12060547 0.22705078 C16.12060547 8.14705078 16.12060547 16.06705078 16.12060547 24.22705078 C6.88060547 24.22705078 -2.35939453 24.22705078 -11.87939453 24.22705078 C-11.87939453 10.72527142 -11.87939453 10.72527142 -8.00439453 6.60205078 C-6.92544922 5.40708984 -6.92544922 5.40708984 -5.82470703 4.18798828 C-1.89750078 0.22923821 -1.89750078 0.22923821 0 0 Z " fill="#FDFDFD" transform="translate(385.87939453125,322.77294921875)"/>
<path d="M0 0 C9.57 0 19.14 0 29 0 C29 6.93 29 13.86 29 21 C19.43 21 9.86 21 0 21 C0 14.07 0 7.14 0 0 Z " fill="#FCFDFE" transform="translate(374,349)"/>
<path d="M0 0 C6.07194254 2.76125461 13.11078903 7.38420962 16.125 13.5 C16.41375 14.325 16.7025 15.15 17 16 C12.97099793 14.64038976 10.45149933 12.85013081 7.375 9.9375 C4.0920144 6.81751986 4.0920144 6.81751986 0 5 C-2.41973774 7.55961477 -4.83522853 10.12320017 -7.25 12.6875 C-7.93191406 13.40873047 -8.61382812 14.12996094 -9.31640625 14.87304688 C-12.7078916 18.478558 -15.91858783 22.12315352 -19 26 C-20.65893182 27.34294481 -22.32476605 28.67744688 -24 30 C-24.99 31.485 -24.99 31.485 -26 33 C-32.04801071 32.45018084 -37.30601106 31.09570426 -43 29 C-43.268125 29.680625 -43.53625 30.36125 -43.8125 31.0625 C-45.16053306 34.39710809 -46.57536298 37.69743237 -48 41 C-48.66 41 -49.32 41 -50 41 C-50.23460937 41.68449219 -50.46921875 42.36898437 -50.7109375 43.07421875 C-52.27672623 46.62808469 -54.38052475 49.66672766 -56.625 52.8125 C-57.04523438 53.40998047 -57.46546875 54.00746094 -57.8984375 54.62304688 C-58.92779728 56.08520565 -59.9632823 57.54304899 -61 59 C-65.1970518 57.40870074 -67.73232331 54.27939817 -70.625 51 C-71.59610895 49.91644685 -72.56745366 48.83310493 -73.5390625 47.75 C-74.35117187 46.8425 -75.16328125 45.935 -76 45 C-76.66 44.34 -77.32 43.68 -78 43 C-80.94874635 42.65177834 -80.94874635 42.65177834 -82.32421875 44.28515625 C-82.99904297 45.16494141 -82.99904297 45.16494141 -83.6875 46.0625 C-86.40325546 49.38764449 -89.30097004 52.11532249 -92.56640625 54.890625 C-95.77479609 57.67157286 -98.88571027 60.55202212 -102 63.4375 C-102.5885376 63.98237061 -103.1770752 64.52724121 -103.78344727 65.08862305 C-105.18975683 66.39156107 -106.59499343 67.69565702 -108 69 C-108.74609375 67.26953125 -108.74609375 67.26953125 -109 65 C-107.41015625 62.88671875 -107.41015625 62.88671875 -105.0625 60.6875 C-104.22460938 59.8934375 -103.38671875 59.099375 -102.5234375 58.28125 C-99.80249689 55.8214523 -97.04351745 53.41580517 -94.25 51.0390625 C-92.40991416 49.37148471 -90.6710443 47.67340841 -88.9375 45.8984375 C-88.4010083 45.34969971 -87.8645166 44.80096191 -87.31176758 44.2355957 C-86.24227359 43.13395099 -85.17939623 42.02583771 -84.1237793 40.91088867 C-82.80427635 39.55152552 -81.40658133 38.26904893 -80 37 C-79.01 37 -78.02 37 -77 37 C-74.87890625 39.265625 -74.87890625 39.265625 -72.5625 42.25 C-70.36741973 45.05791993 -68.26419356 47.74167741 -65.71484375 50.234375 C-64 52 -64 52 -64 54 C-63.01 54 -62.02 54 -61 54 C-60.75894531 53.31421875 -60.51789063 52.6284375 -60.26953125 51.921875 C-58.75899218 48.44531123 -56.77882873 45.39364791 -54.6875 42.25 C-51.21718947 36.95280639 -47.95231965 31.60792376 -45 26 C-43.329375 26.2165625 -43.329375 26.2165625 -41.625 26.4375 C-40.52865234 26.55544922 -40.52865234 26.55544922 -39.41015625 26.67578125 C-37 27 -37 27 -34.55859375 27.60546875 C-31.81767567 28.17595718 -29.77685688 28.41825329 -27 28 C-23.40037275 25.50025886 -20.76802694 22.37271832 -18 19 C-16.87797638 17.70574702 -15.7531425 16.41392291 -14.625 15.125 C-13.80708984 14.16980469 -13.80708984 14.16980469 -12.97265625 13.1953125 C-8.84932342 8.60657379 -4.39655098 4.32499771 0 0 Z " fill="#14599C" transform="translate(451,355)"/>
<path d="M0 0 C8.91 0 17.82 0 27 0 C27 6.6 27 13.2 27 20 C18.09 20 9.18 20 0 20 C0 13.4 0 6.8 0 0 Z " fill="#FEFEFE" transform="translate(405,349)"/>
<path d="M0 0 C0.33 0 0.66 0 1 0 C2.69734585 28.54055611 -10.41742854 58.70956128 -26 82 C-26.71542969 83.10601563 -27.43085937 84.21203125 -28.16796875 85.3515625 C-28.77253906 86.22554687 -29.37710938 87.09953125 -30 88 C-30.33 88 -30.66 88 -31 88 C-32.13374268 78.13223962 -31.29091749 72.17275391 -25.76831055 63.98681641 C-22.33715405 58.83376828 -20.05127766 53.59918724 -17.875 47.8125 C-15.26347142 40.91176109 -12.36088281 34.87409704 -8.46484375 28.6015625 C-6.59195457 25.27531132 -5.56963336 21.98512645 -4.6171875 18.3046875 C-4.01884519 16.07037129 -3.24896196 14.01412593 -2.375 11.875 C-0.83940631 7.9355188 -0.37522224 4.20248911 0 0 Z " fill="#6F9ABC" transform="translate(713,457)"/>
<path d="M0 0 C9.24 0 18.48 0 28 0 C28 19.8 28 39.6 28 60 C27.67 60 27.34 60 27 60 C27 45.81 27 31.62 27 17 C18.09 17 9.18 17 0 17 C0 11.39 0 5.78 0 0 Z " fill="#EAF4FA" transform="translate(374,442)"/>
<path d="M0 0 C0.79075928 0.00523682 1.58151855 0.01047363 2.39624023 0.01586914 C3.16524658 0.0183667 3.93425293 0.02086426 4.7265625 0.0234375 C5.70939209 0.0325415 6.69222168 0.04164551 7.70483398 0.05102539 C10.81920898 0.07165039 13.93358398 0.09227539 17.14233398 0.11352539 C17.14233398 7.04352539 17.14233398 13.97352539 17.14233398 21.11352539 C8.56233398 21.11352539 -0.01766602 21.11352539 -8.85766602 21.11352539 C-8.09098978 15.74679172 -7.29838283 12.12416715 -5.35766602 7.23852539 C-4.91422852 6.10672852 -4.47079102 4.97493164 -4.01391602 3.80883789 C-2.44405329 0.1493606 -2.44405329 0.1493606 0 0 Z " fill="#F8FBFC" transform="translate(354.857666015625,370.886474609375)"/>
<path d="M0 0 C1.07121094 0.65548828 1.07121094 0.65548828 2.1640625 1.32421875 C4.93233605 3.02097703 4.93233605 3.02097703 7.7109375 4.26953125 C11.12416063 6.24639802 12.86876108 7.63113218 15 11 C16.01799903 18.27081906 14.95757845 25.76496281 14 33 C14.99 33.495 14.99 33.495 16 34 C15.01 34.495 15.01 34.495 14 35 C12.86649466 37.01669827 12.86649466 37.01669827 12 39 C12 37.35 12 35.7 12 34 C2.43 34 -7.14 34 -17 34 C-17 38.62 -17 43.24 -17 48 C-17.33 48 -17.66 48 -18 48 C-18 43.38 -18 38.76 -18 34 C-27.57 34 -37.14 34 -47 34 C-45.74646003 30.86615008 -44.53924548 27.96854486 -43 25 C-42.443125 25.13277344 -41.88625 25.26554687 -41.3125 25.40234375 C-39.71695492 25.77158307 -38.11764462 26.12479242 -36.515625 26.46484375 C-34.93577088 26.80093073 -33.36121063 27.16422776 -31.796875 27.56640625 C-29.48728374 28.12952094 -29.48728374 28.12952094 -26 28 C-23.17345127 25.25814691 -23.17345127 25.25814691 -21 22 C-19.68 21.34 -18.36 20.68 -17 20 C-17 24.29 -17 28.58 -17 33 C-7.43 33 2.14 33 12 33 C12 26.07 12 19.14 12 12 C4.74 12 -2.52 12 -10 12 C-3.25 3 -3.25 3 0 0 Z " fill="#BEE0F3" transform="translate(451,359)"/>
<path d="M0 0 C0.33 0 0.66 0 1 0 C1 29.04 1 58.08 1 88 C0.67 88 0.34 88 0 88 C0 68.2 0 48.4 0 28 C-2.31 28 -4.62 28 -7 28 C-6.99555878 29.04569656 -6.99111755 30.09139313 -6.98654175 31.16877747 C-6.94603693 41.0129303 -6.91603546 50.85706627 -6.89637566 60.70128345 C-6.88592867 65.76256083 -6.87175277 70.82377105 -6.84912109 75.88500977 C-6.82742535 80.76737314 -6.81543827 85.64967184 -6.81024551 90.5320797 C-6.80654388 92.3968476 -6.79931571 94.26161187 -6.78853989 96.12635231 C-6.7740684 98.73380877 -6.77202023 101.34099631 -6.77294922 103.94848633 C-6.76575867 104.72316254 -6.75856812 105.49783875 -6.75115967 106.29598999 C-6.76578763 110.07844382 -6.84792468 111.77188702 -9 115 C-9 106.75 -9 98.5 -9 90 C-9.66 90 -10.32 90 -11 90 C-11 75.48 -11 60.96 -11 46 C-29.15 46 -47.3 46 -66 46 C-66 45.67 -66 45.34 -66 45 C-47.52 45 -29.04 45 -10 45 C-9.34 31.8 -8.68 18.6 -8 5 C-7.67 5 -7.34 5 -7 5 C-7 12.26 -7 19.52 -7 27 C-4.69 27 -2.38 27 0 27 C0 18.09 0 9.18 0 0 Z " fill="#A8CFC6" transform="translate(411,414)"/>
<path d="M0 0 C4.29 0.33 8.58 0.66 13 1 C14.12480261 9.43601959 13.60537512 16.65470287 12 25 C13.32 25.33 14.64 25.66 16 26 C15.01 26.66 14.02 27.32 13 28 C13 27.34 13 26.68 13 26 C7.39 26 1.78 26 -4 26 C-4.65779458 16.95532459 -2.23437506 8.68812802 0 0 Z " fill="#8CB0CD" transform="translate(329,392)"/>
<path d="M0 0 C8.25 0 16.5 0 25 0 C19.57502249 6.32914043 13.97010078 12.21239139 8 18 C6.96552734 19.00933594 6.96552734 19.00933594 5.91015625 20.0390625 C1.65897187 23.96466383 1.65897187 23.96466383 -1.6953125 24.14453125 C-2.45585937 24.09683594 -3.21640625 24.04914063 -4 24 C-3.91063762 22.06176077 -3.80249565 20.12438744 -3.6875 18.1875 C-3.62949219 17.10855469 -3.57148438 16.02960938 -3.51171875 14.91796875 C-2.85011604 9.85241518 -1.34415533 4.92856953 0 0 Z " fill="#F5F9FB" transform="translate(345,393)"/>
<path d="M0 0 C2.31 0 4.62 0 7 0 C7.33 11.88 7.66 23.76 8 36 C4.04 37.32 0.08 38.64 -4 40 C-4 27.46 -4 14.92 -4 2 C-3.34 2 -2.68 2 -2 2 C-1.67 9.26 -1.34 16.52 -1 24 C-0.67 16.08 -0.34 8.16 0 0 Z " fill="#C7DFF2" transform="translate(404,502)"/>
<path d="M0 0 C0.66 0 1.32 0 2 0 C2 6.27 2 12.54 2 19 C-7.57 19 -17.14 19 -27 19 C-27 13.39 -27 7.78 -27 2 C-22.30192076 5.83516673 -18.32267435 9.76588535 -14.48046875 14.4609375 C-13.99191406 14.96882813 -13.50335938 15.47671875 -13 16 C-12.34 16 -11.68 16 -11 16 C-9.79200723 14.59853509 -9.79200723 14.59853509 -8.65234375 12.75390625 C-8.21212891 12.08166016 -7.77191406 11.40941406 -7.31835938 10.71679688 C-6.86267578 10.00587891 -6.40699219 9.29496094 -5.9375 8.5625 C-5.03077052 7.16743375 -4.12325835 5.7728758 -3.21484375 4.37890625 C-2.61337524 3.44413452 -2.61337524 3.44413452 -1.99975586 2.49047852 C-1 1 -1 1 0 0 Z " fill="#F7F9FC" transform="translate(401,397)"/>
<path d="M0 0 C3.3 0 6.6 0 10 0 C10 9.9 10 19.8 10 30 C6.7 30 3.4 30 0 30 C0 20.1 0 10.2 0 0 Z " fill="#C3DDED" transform="translate(610,472)"/>
<path d="M0 0 C1.65 0 3.3 0 5 0 C5.02484561 6.24389358 5.0429287 12.48775795 5.05493164 18.73168945 C5.05993918 20.85278831 5.06674715 22.97388375 5.07543945 25.0949707 C5.08766252 28.15577033 5.09326425 31.21652404 5.09765625 34.27734375 C5.10281754 35.21521225 5.10797882 36.15308075 5.11329651 37.11936951 C5.11377539 42.82715928 4.73018382 48.33791715 4 54 C3.01 54 2.02 54 1 54 C1 62.25 1 70.5 1 79 C0.67 79 0.34 79 0 79 C0 52.93 0 26.86 0 0 Z " fill="#D9ECF8" transform="translate(682,418)"/>
<path d="M0 0 C2.64 0 5.28 0 8 0 C8 6.93 8 13.86 8 21 C2.06 21 -3.88 21 -10 21 C-8.44509976 15.51211679 -6.44550161 10.50512639 -3.8125 5.4375 C-3.28269531 4.40496094 -2.75289063 3.37242187 -2.20703125 2.30859375 C-1.47871094 1.54675781 -0.75039063 0.78492188 0 0 Z " fill="#FBFCFD" transform="translate(364,349)"/>
<path d="M0 0 C1.3011108 0.01520958 1.3011108 0.01520958 2.62850666 0.03072643 C3.62550083 0.03501659 4.622495 0.03930676 5.64970112 0.04372692 C6.74230244 0.06386349 7.83490376 0.08400005 8.9606142 0.10474682 C10.68765331 0.11872005 10.68765331 0.11872005 12.4495821 0.13297558 C16.26450867 0.16741732 20.07880955 0.22330094 23.89347553 0.27930737 C26.53476336 0.30733229 29.17606565 0.33402355 31.81737995 0.35943127 C38.06483623 0.42178227 44.31200182 0.49955608 50.55921012 0.58285159 C57.67147536 0.67693157 64.78389365 0.75384827 71.89637697 0.82931292 C86.52716482 0.98493319 101.15764363 1.16214149 115.78800678 1.35352612 C115.78800678 1.68352612 115.78800678 2.01352612 115.78800678 2.35352612 C110.50800678 2.35352612 105.22800678 2.35352612 99.78800678 2.35352612 C99.78800678 11.59352612 99.78800678 20.83352612 99.78800678 30.35352612 C99.45800678 30.35352612 99.12800678 30.35352612 98.78800678 30.35352612 C98.45800678 21.44352612 98.12800678 12.53352612 97.78800678 3.35352612 C88.54800678 3.35352612 79.30800678 3.35352612 69.78800678 3.35352612 C69.78800678 12.26352612 69.78800678 21.17352612 69.78800678 30.35352612 C69.45800678 30.35352612 69.12800678 30.35352612 68.78800678 30.35352612 C68.78800678 21.44352612 68.78800678 12.53352612 68.78800678 3.35352612 C59.21800678 3.35352612 49.64800678 3.35352612 39.78800678 3.35352612 C39.45800678 6.32352612 39.12800678 9.29352612 38.78800678 12.35352612 C38.45800678 12.35352612 38.12800678 12.35352612 37.78800678 12.35352612 C37.78800678 9.05352612 37.78800678 5.75352612 37.78800678 2.35352612 C28.21800678 2.35352612 18.64800678 2.35352612 8.78800678 2.35352612 C8.45800678 3.67352612 8.12800678 4.99352612 7.78800678 6.35352612 C7.78800678 5.36352612 7.78800678 4.37352612 7.78800678 3.35352612 C3.49800678 3.35352612 -0.79199322 3.35352612 -5.21199322 3.35352612 C-2.21199322 0.35352612 -2.21199322 0.35352612 0 0 Z " fill="#C9E3F5" transform="translate(425.21199321746826,290.6464738845825)"/>
<path d="M0 0 C4.62 0 9.24 0 14 0 C13.0942708 1.81145841 12.18827472 3.62278368 11.28125 5.43359375 C10.33968649 7.31959138 9.40287349 9.20796256 8.46875 11.09765625 C7.9428125 12.15855469 7.416875 13.21945312 6.875 14.3125 C6.12863281 15.82263672 6.12863281 15.82263672 5.3671875 17.36328125 C4 20 4 20 2 23 C-0.97 22.67 -3.94 22.34 -7 22 C-6.03967782 13.65809686 -4.10157681 7.33966376 0 0 Z " fill="#9AB7CF" transform="translate(351,348)"/>
<path d="M0 0 C2.12109375 2.265625 2.12109375 2.265625 4.4375 5.25 C6.63258027 8.05791993 8.73580644 10.74167741 11.28515625 13.234375 C13 15 13 15 13 17 C13.99 17 14.98 17 16 17 C16.2475 16.278125 16.495 15.55625 16.75 14.8125 C18.12269592 11.72393418 19.72353296 9.48988582 22 7 C22.66 7 23.32 7 24 7 C23.4520917 11.2829452 21.97567196 13.85135641 19.4375 17.3125 C18.79683594 18.19550781 18.15617187 19.07851563 17.49609375 19.98828125 C17.00238281 20.65214844 16.50867188 21.31601562 16 22 C11.8029482 20.40870074 9.26767669 17.27939817 6.375 14 C5.40389105 12.91644685 4.43254634 11.83310493 3.4609375 10.75 C2.64882813 9.8425 1.83671875 8.935 1 8 C0.34 7.34 -0.32 6.68 -1 6 C-3.94874635 5.65177834 -3.94874635 5.65177834 -5.32421875 7.28515625 C-5.77410156 7.87167969 -6.22398437 8.45820313 -6.6875 9.0625 C-9.40325546 12.38764449 -12.30097004 15.11532249 -15.56640625 17.890625 C-18.77479609 20.67157286 -21.88571027 23.55202212 -25 26.4375 C-25.5885376 26.98237061 -26.1770752 27.52724121 -26.78344727 28.08862305 C-28.18975683 29.39156107 -29.59499343 30.69565702 -31 32 C-31.74609375 30.26953125 -31.74609375 30.26953125 -32 28 C-30.41015625 25.88671875 -30.41015625 25.88671875 -28.0625 23.6875 C-27.22460938 22.8934375 -26.38671875 22.099375 -25.5234375 21.28125 C-22.80249689 18.8214523 -20.04351745 16.41580517 -17.25 14.0390625 C-15.40991416 12.37148471 -13.6710443 10.67340841 -11.9375 8.8984375 C-11.4010083 8.34969971 -10.8645166 7.80096191 -10.31176758 7.2355957 C-9.24227359 6.13395099 -8.17939623 5.02583771 -7.1237793 3.91088867 C-3.32756848 0 -3.32756848 0 0 0 Z " fill="#134A8E" transform="translate(374,392)"/>
<path d="M0 0 C18.48 0 36.96 0 56 0 C56 27.06 56 54.12 56 82 C55.67 82 55.34 82 55 82 C54.8671261 74.83500982 54.73662177 67.66998017 54.60884857 60.50489712 C54.54939976 57.17503657 54.48901304 53.84519966 54.42724609 50.51538086 C54.3557677 46.65481823 54.28703871 42.79421398 54.21875 38.93359375 C54.19687622 37.78362411 54.17500244 36.63365448 54.15246582 35.44883728 C53.95410929 23.96136997 54 12.49588061 54 1 C28.755 1.495 28.755 1.495 3 2 C2.71154411 13.8163018 2.71154411 13.8163018 2.43188477 25.6328125 C2.39370666 27.13021639 2.35523299 28.62761279 2.31640625 30.125 C2.29993042 30.88296875 2.28345459 31.6409375 2.26647949 32.421875 C2.13410904 37.34256835 1.67966013 42.12386183 1 47 C0.67 47 0.34 47 0 47 C0 31.49 0 15.98 0 0 Z " fill="#489F4A" transform="translate(344,460)"/>
<path d="M0 0 C8.58 0 17.16 0 26 0 C21.36206897 9.27586207 21.36206897 9.27586207 18.9375 13 C18.45152344 13.763125 17.96554687 14.52625 17.46484375 15.3125 C16.73974609 16.1478125 16.73974609 16.1478125 16 17 C15.01 17 14.02 17 13 17 C10.87890625 14.734375 10.87890625 14.734375 8.5625 11.75 C6.36741973 8.94208007 4.26419356 6.25832259 1.71484375 3.765625 C0 2 0 2 0 0 Z " fill="#EDF4F9" transform="translate(374,392)"/>
<path d="M0 0 C0.66 0 1.32 0 2 0 C2.33 1.65 2.66 3.3 3 5 C5.01822917 4.90234375 7.03645833 4.8046875 9.0546875 4.70703125 C9.69664062 4.80371094 10.33859375 4.90039062 11 5 C11.99 6.485 11.99 6.485 13 8 C13.33 8.33 13.66 8.66 14 9 C14.08767112 11.07262076 14.10695873 13.14820294 14.09765625 15.22265625 C14.09443359 16.48271484 14.09121094 17.74277344 14.08789062 19.04101562 C14.07953403 20.38151109 14.07106907 21.72200588 14.0625 23.0625 C14.0574866 24.40689942 14.05292342 25.7513006 14.04882812 27.09570312 C14.03699488 30.39717941 14.02050971 33.69856803 14 37 C10.77685626 35.38842813 10.3351094 31.98471057 9.1875 28.75 C8.65703009 27.28747724 8.12576844 25.82524142 7.59375 24.36328125 C7.32820313 23.62932129 7.06265625 22.89536133 6.7890625 22.13916016 C5.64878884 19.04786133 4.41235974 15.9960887 3.1875 12.9375 C1.49021047 8.56371543 0.32629603 4.67690974 0 0 Z " fill="#7AA5C8" transform="translate(330,485)"/>
<path d="M0 0 C3.3 0 6.6 0 10 0 C10 7.26 10 14.52 10 22 C6.7 22 3.4 22 0 22 C0 14.74 0 7.48 0 0 Z " fill="#FCFDFD" transform="translate(610,394)"/>
<path d="M0 0 C2.31 0 4.62 0 7 0 C7 9.9 7 19.8 7 30 C4.69 30 2.38 30 0 30 C0 20.1 0 10.2 0 0 Z " fill="#F9FBFD" transform="translate(404,442)"/>
<path d="M0 0 C0.33 0 0.66 0 1 0 C1.58811963 9.88912275 0.05354076 19.36399661 -2 29 C-2.1556543 29.73524902 -2.31130859 30.47049805 -2.47167969 31.22802734 C-3.49650475 35.74973554 -4.66993036 39.94959857 -7 44 C-10.26773752 46.04484188 -13.17473158 46.75488571 -17 47 C-15.43562378 41.47867218 -13.5006128 36.96624989 -10.5 32.0625 C-7.76315417 27.5375049 -5.93845273 23.41031733 -4.6171875 18.3046875 C-4.01884519 16.07037129 -3.24896196 14.01412593 -2.375 11.875 C-0.83940631 7.9355188 -0.37522224 4.20248911 0 0 Z " fill="#7BAACC" transform="translate(713,457)"/>
<path d="M0 0 C3.3 0 6.6 0 10 0 C10 6.6 10 13.2 10 20 C6.7 20 3.4 20 0 20 C0 13.4 0 6.8 0 0 Z " fill="#FCFDFD" transform="translate(610,372)"/>
<path d="M0 0 C2.97 0 5.94 0 9 0 C9 7.26 9 14.52 9 22 C6.03 22 3.06 22 0 22 C0 14.74 0 7.48 0 0 Z " fill="#EBF5FA" transform="translate(611,418)"/>
<path d="M0 0 C0.99 0 1.98 0 3 0 C3 3.63 3 7.26 3 11 C-6.24 11 -15.48 11 -25 11 C-24.22404875 7.89619499 -23.4731994 5.74997221 -22 3 C-21.1646875 3.19916016 -21.1646875 3.19916016 -20.3125 3.40234375 C-18.71695492 3.77158307 -17.11764462 4.12479242 -15.515625 4.46484375 C-13.93577088 4.80093073 -12.36121063 5.16422776 -10.796875 5.56640625 C-8.48728374 6.12952094 -8.48728374 6.12952094 -5 6 C-2.90173919 4.21784082 -1.61891939 2.26648715 0 0 Z " fill="#F1F7FA" transform="translate(430,381)"/>
<path d="M0 0 C0 5.94 0 11.88 0 18 C-5.94 18 -11.88 18 -18 18 C-14.46538414 13.83096591 -10.88239972 9.70924912 -7.25 5.625 C-6.49203125 4.77164062 -5.7340625 3.91828125 -4.953125 3.0390625 C-2.04214559 0 -2.04214559 0 0 0 Z " fill="#FAFCFD" transform="translate(372,398)"/>
<path d="M0 0 C2.46747621 3.70121431 2.26825955 6.4972506 2.22705078 10.77612305 C2.22734283 11.56660034 2.22763489 12.35707764 2.22793579 13.17150879 C2.22654214 15.78502366 2.21097938 18.39825366 2.1953125 21.01171875 C2.19158249 22.82346948 2.18873546 24.63522224 2.18673706 26.44697571 C2.17909964 31.21621263 2.1594502 35.9853278 2.1373291 40.7545166 C2.11687303 45.62083285 2.10773585 50.48716877 2.09765625 55.35351562 C2.07620442 64.90239725 2.04206714 74.4511885 2 84 C0.53984709 83.71758359 -0.91809793 83.42373386 -2.375 83.125 C-3.18710937 82.96257812 -3.99921875 82.80015625 -4.8359375 82.6328125 C-7 82 -7 82 -9 80 C-6.94921875 80.29296875 -4.8984375 80.5859375 -2.84765625 80.87890625 C-2.23792969 80.91886719 -1.62820313 80.95882812 -1 81 C0.71987206 79.28012794 0.11974788 77.09122971 0.12442017 74.79867554 C0.11902725 73.68197983 0.11902725 73.68197983 0.11352539 72.54272461 C0.11367142 71.76229294 0.11381744 70.98186127 0.1139679 70.17778015 C0.11326858 67.5859402 0.10547536 64.99417122 0.09765625 62.40234375 C0.09579213 60.6101536 0.0943682 58.81796294 0.09336853 57.02577209 C0.08954284 52.29929203 0.07971212 47.57284248 0.06866455 42.84637451 C0.05845153 38.0271445 0.05387115 33.20790958 0.04882812 28.38867188 C0.03808989 18.92576781 0.02101286 9.46288644 0 0 Z " fill="#D58021" transform="translate(608,447)"/>
<path d="M0 0 C2.97 0 5.94 0 9 0 C6.69 6.93 4.38 13.86 2 21 C10.25 21 18.5 21 27 21 C27 21.33 27 21.66 27 22 C18.42 22 9.84 22 1 22 C0.67 23.98 0.34 25.96 0 28 C-0.33 28 -0.66 28 -1 28 C-1.02886338 23.52084672 -1.04675187 19.04171709 -1.0625 14.5625 C-1.07087891 13.28310547 -1.07925781 12.00371094 -1.08789062 10.68554688 C-1.09111328 9.47060547 -1.09433594 8.25566406 -1.09765625 7.00390625 C-1.10289307 5.87799072 -1.10812988 4.7520752 -1.11352539 3.59204102 C-1 1 -1 1 0 0 Z " fill="#9FBDD3" transform="translate(344,371)"/>
<path d="M0 0 C0.66 0 1.32 0 2 0 C2 8.25 2 16.5 2 25 C3.65 25 5.3 25 7 25 C6.34 25.66 5.68 26.32 5 27 C4.01 27 3.02 27 2 27 C2 32.28 2 37.56 2 43 C0.68 42.34 -0.64 41.68 -2 41 C-1.01 40.505 -1.01 40.505 0 40 C0 35.71 0 31.42 0 27 C-9.57 27 -19.14 27 -29 27 C-29 26.34 -29 25.68 -29 25 C-19.43 25 -9.86 25 0 25 C0 16.75 0 8.5 0 0 Z " fill="#C8E3F4" transform="translate(463,322)"/>
<path d="M0 0 C1.39456452 0.00667256 2.78911118 0.01863093 4.18359375 0.03515625 C4.89451172 0.03966797 5.60542969 0.04417969 6.33789062 0.04882812 C8.09899388 0.06064761 9.86005411 0.07858362 11.62109375 0.09765625 C11.62109375 0.42765625 11.62109375 0.75765625 11.62109375 1.09765625 C7.00109375 1.42765625 2.38109375 1.75765625 -2.37890625 2.09765625 C-6.46714319 12.4179251 -6.46714319 12.4179251 -9.37890625 23.09765625 C-6.40890625 23.09765625 -3.43890625 23.09765625 -0.37890625 23.09765625 C-0.37890625 23.42765625 -0.37890625 23.75765625 -0.37890625 24.09765625 C-3.34890625 24.42765625 -6.31890625 24.75765625 -9.37890625 25.09765625 C-9.70890625 34.99765625 -10.03890625 44.89765625 -10.37890625 55.09765625 C-10.70890625 55.09765625 -11.03890625 55.09765625 -11.37890625 55.09765625 C-11.37890625 52.12765625 -11.37890625 49.15765625 -11.37890625 46.09765625 C-15.33890625 46.09765625 -19.29890625 46.09765625 -23.37890625 46.09765625 C-23.37890625 45.76765625 -23.37890625 45.43765625 -23.37890625 45.09765625 C-19.41890625 45.09765625 -15.45890625 45.09765625 -11.37890625 45.09765625 C-11.37890625 38.16765625 -11.37890625 31.23765625 -11.37890625 24.09765625 C-12.69890625 24.09765625 -14.01890625 24.09765625 -15.37890625 24.09765625 C-13.47302486 17.18883621 -8.17680036 0.23632371 0 0 Z " fill="#72A1C5" transform="translate(353.37890625,346.90234375)"/>
<path d="M0 0 C0.66 0 1.32 0 2 0 C2 1.32 2 2.64 2 4 C5.63 4 9.26 4 13 4 C12.154375 4.94875 11.30875 5.8975 10.4375 6.875 C6.60134875 11.33372472 3.30447239 16.14105687 0 21 C-0.66 20.67 -1.32 20.34 -2 20 C-1.67 15.38 -1.34 10.76 -1 6 C-3.31 7.65 -5.62 9.3 -8 11 C-7.25 8.0625 -7.25 8.0625 -6 5 C-4 4.375 -4 4.375 -2 4 C-0.71563266 2.0162233 -0.71563266 2.0162233 0 0 Z " fill="#709FC5" transform="translate(373,317)"/>
<path d="M0 0 C2.23611867 -0.00217357 4.47173295 -0.02031752 6.70776367 -0.03930664 C14.34916339 -0.06838326 21.64274997 0.17973799 29.07299805 2.18530273 C29.07299805 2.51530273 29.07299805 2.84530273 29.07299805 3.18530273 C20.32669151 4.0670638 11.67299045 4.33875657 2.88549805 4.31030273 C1.07662109 4.31610352 1.07662109 4.31610352 -0.76879883 4.32202148 C-7.24052691 4.31495242 -13.51265505 4.05340983 -19.92700195 3.18530273 C-19.59700195 2.52530273 -19.26700195 1.86530273 -18.92700195 1.18530273 C-12.85451731 -0.58927568 -6.27460677 -0.00068224 0 0 Z " fill="#BCD4E8" transform="translate(518.927001953125,692.814697265625)"/>
<path d="M0 0 C4.42051588 2.41119048 8.4942989 5.37306428 12 9 C12 9.66 12 10.32 12 11 C5.4 11 -1.2 11 -8 11 C-5.82441683 5.56104207 -4.13455193 3.86490723 0 0 Z " fill="#F5F9FB" transform="translate(451,359)"/>
<path d="M0 0 C0 4.62 0 9.24 0 14 C-5.28 14 -10.56 14 -16 14 C-4.57142857 0 -4.57142857 0 0 0 Z " fill="#F9FBFD" transform="translate(403,307)"/>
<path d="M0 0 C1.32 0 2.64 0 4 0 C5.50156874 3.00313748 5.09281204 5.79067522 5.0625 9.125 C5.05347656 10.40632812 5.04445313 11.68765625 5.03515625 13.0078125 C5.02355469 13.99523437 5.01195312 14.98265625 5 16 C5.66 16 6.32 16 7 16 C5.68315519 20.60895683 3.84801255 24.14140235 1 28 C0.67 28 0.34 28 0 28 C0 18.76 0 9.52 0 0 Z " fill="#ABD2EC" transform="translate(682,502)"/>
<path d="M0 0 C5.51175932 1.18881083 8.23216888 2.5672575 12 7 C12.33 7.66 12.66 8.32 13 9 C11.68 8.67 10.36 8.34 9 8 C9 15.26 9 22.52 9 30 C18.57 29.67 28.14 29.34 38 29 C38 29.99 38 30.98 38 32 C28.43 31.67 18.86 31.34 9 31 C9 34.3 9 37.6 9 41 C8.67 41 8.34 41 8 41 C8 37.7 8 34.4 8 31 C0.08 31 -7.84 31 -16 31 C-16 30.67 -16 30.34 -16 30 C-8.08 30 -0.16 30 8 30 C7.855625 26.803125 7.71125 23.60625 7.5625 20.3125 C7.51939697 19.31387939 7.47629395 18.31525879 7.43188477 17.28637695 C7.3747229 16.08694458 7.3747229 16.08694458 7.31640625 14.86328125 C7.27974854 14.05157471 7.24309082 13.23986816 7.20532227 12.40356445 C6.98550249 9.8302878 6.72248903 7.48419618 6 5 C3.03292954 3.14083176 3.03292954 3.14083176 0 2 C0 1.34 0 0.68 0 0 Z " fill="#BADBF2" transform="translate(629,291)"/>
<path d="M0 0 C1.65 0 3.3 0 5 0 C5 7.59 5 15.18 5 23 C3.35 23 1.7 23 0 23 C0 15.41 0 7.82 0 0 Z " fill="#F7FAFC" transform="translate(682,393)"/>
<path d="M0 0 C0.99 0.495 0.99 0.495 2 1 C2 1.99 2 2.98 2 4 C4.64 4.33 7.28 4.66 10 5 C10 11.6 10 18.2 10 25 C6.67014281 23.33507141 6.18940423 19.59446337 5 16.25 C4.47958041 14.81755795 3.95875606 13.38526288 3.4375 11.953125 C3.19257813 11.27056641 2.94765625 10.58800781 2.6953125 9.88476562 C2.10980046 8.29763328 1.46743063 6.73164399 0.8125 5.171875 C0 3 0 3 0 0 Z " fill="#6C99B7" transform="translate(334,497)"/>
<path d="M0 0 C1.65 0 3.3 0 5 0 C5 6.93 5 13.86 5 21 C3.35 21 1.7 21 0 21 C0 14.07 0 7.14 0 0 Z " fill="#F9FCFD" transform="translate(682,371)"/>
<path d="M0 0 C1.4251286 0.00503579 2.85025896 0.00959494 4.27539062 0.01367188 C7.70446493 0.02448818 11.13347032 0.04163239 14.5625 0.0625 C14.5625 0.3925 14.5625 0.7225 14.5625 1.0625 C9.2825 1.0625 4.0025 1.0625 -1.4375 1.0625 C-1.4375 10.3025 -1.4375 19.5425 -1.4375 29.0625 C-1.7675 29.0625 -2.0975 29.0625 -2.4375 29.0625 C-2.7675 20.1525 -3.0975 11.2425 -3.4375 2.0625 C-12.6775 2.0625 -21.9175 2.0625 -31.4375 2.0625 C-31.4375 1.7325 -31.4375 1.4025 -31.4375 1.0625 C-20.93332315 0.22106544 -10.53312264 -0.06612051 0 0 Z " fill="#D2E8F8" transform="translate(526.4375,291.9375)"/>
<path d="M0 0 C0.99 0 1.98 0 3 0 C3 9.9 3 19.8 3 30 C1.68 30 0.36 30 -1 30 C-0.67 20.1 -0.34 10.2 0 0 Z " fill="#C5E0F3" transform="translate(683,472)"/>
<path d="M0 0 C0.33 1.32 0.66 2.64 1 4 C10.57 4 20.14 4 30 4 C30 4.33 30 4.66 30 5 C20.43 5 10.86 5 1 5 C1 11.93 1 18.86 1 26 C0.34 26 -0.32 26 -1 26 C-1 19.07 -1 12.14 -1 5 C-6.94 5 -12.88 5 -19 5 C-19 4.67 -19 4.34 -19 4 C-12.73 4 -6.46 4 0 4 C0 2.68 0 1.36 0 0 Z " fill="#BADCF2" transform="translate(373,366)"/>
<path d="M0 0 C0.82054871 0.00007553 1.64109741 0.00015106 2.48651123 0.00022888 C3.36269104 0.00539017 4.23887085 0.01055145 5.14160156 0.01586914 C6.49816864 0.01799156 6.49816864 0.01799156 7.88214111 0.02015686 C10.76553683 0.02574628 13.64885439 0.03829686 16.53222656 0.05102539 C18.48925669 0.05604176 20.44628804 0.06060443 22.40332031 0.06469727 C27.19631909 0.07571226 31.98925958 0.09296965 36.78222656 0.11352539 C36.45222656 0.77352539 36.12222656 1.43352539 35.78222656 2.11352539 C26.93450223 3.586822 17.66700185 3.29605744 8.71972656 3.30102539 C7.52412109 3.31327148 6.32851563 3.32551758 5.09667969 3.33813477 C3.37674805 3.34103516 3.37674805 3.34103516 1.62207031 3.34399414 C0.59460693 3.34810303 -0.43285645 3.35221191 -1.49145508 3.35644531 C-4.2383063 3.11169588 -5.87649008 2.52486792 -8.21777344 1.11352539 C-5.40583543 0.31530723 -2.91954059 -0.00901093 0 0 Z " fill="#B7D2E7" transform="translate(509.2177734375,698.886474609375)"/>
<path d="M0 0 C1.32 0 2.64 0 4 0 C4 7.26 4 14.52 4 22 C2.68 22 1.36 22 0 22 C0 14.74 0 7.48 0 0 Z " fill="#F8FAFC" transform="translate(682,418)"/>
<path d="M0 0 C4.95 0 9.9 0 15 0 C11.75753164 2.59397469 8.51569673 5.18566096 5.25 7.75 C4.47140625 8.36359375 3.6928125 8.9771875 2.890625 9.609375 C1 11 1 11 0 11 C0 7.37 0 3.74 0 0 Z " fill="#9CBAD1" transform="translate(404,294)"/>
<path d="M0 0 C1.32 0 2.64 0 4 0 C4 6.27 4 12.54 4 19 C2.68 19.33 1.36 19.66 0 20 C0 13.4 0 6.8 0 0 Z " fill="#F4F8FB" transform="translate(682,443)"/>
<path d="M0 0 C0.33 0 0.66 0 1 0 C1.58912359 9.90600407 -0.20865113 19.30752309 -2 29 C-2.33 28.01 -2.66 27.02 -3 26 C-4.98 26.99 -4.98 26.99 -7 28 C-4.28925439 16.46491228 -4.28925439 16.46491228 -2.375 11.75 C-0.88606539 7.68926926 -0.38262526 4.28540288 0 0 Z " fill="#8ABADB" transform="translate(713,457)"/>
<path d="M0 0 C0.66 0 1.32 0 2 0 C3.19148936 19.34042553 3.19148936 19.34042553 3 29 C2.34 28.67 1.68 28.34 1 28 C1 24.7 1 21.4 1 18 C0.34 18 -0.32 18 -1 18 C-1.02684312 15.18743719 -1.04676188 12.37512759 -1.0625 9.5625 C-1.07087891 8.76005859 -1.07925781 7.95761719 -1.08789062 7.13085938 C-1.0965143 5.08704779 -1.0522815 3.04316098 -1 1 C-0.67 0.67 -0.34 0.34 0 0 Z " fill="#D5E8F6" transform="translate(341,424)"/>
<path d="M0 0 C1.37478516 0.01740234 1.37478516 0.01740234 2.77734375 0.03515625 C3.69644531 0.04417969 4.61554688 0.05320312 5.5625 0.0625 C6.27277344 0.07410156 6.98304688 0.08570313 7.71484375 0.09765625 C4.32711478 4.78925341 0.93299192 9.12763445 -3.28515625 13.09765625 C-3.31202178 11.11856227 -3.33149 9.13936654 -3.34765625 7.16015625 C-3.35925781 6.05800781 -3.37085938 4.95585937 -3.3828125 3.8203125 C-3.25076835 0.13892172 -3.25076835 0.13892172 0 0 Z " fill="#9EB9CF" transform="translate(377.28515625,321.90234375)"/>
<path d="M0 0 C0.33 0 0.66 0 1 0 C1 1.65 1 3.3 1 5 C3.97 5 6.94 5 10 5 C10 5.33 10 5.66 10 6 C5.545 6.495 5.545 6.495 1 7 C0.67 16.9 0.34 26.8 0 37 C-0.33 37 -0.66 37 -1 37 C-1 34.03 -1 31.06 -1 28 C-4.96 28 -8.92 28 -13 28 C-13 27.67 -13 27.34 -13 27 C-9.04 27 -5.08 27 -1 27 C-1 20.07 -1 13.14 -1 6 C-2.32 5.67 -3.64 5.34 -5 5 C-3.68 4.67 -2.36 4.34 -1 4 C-0.67 2.68 -0.34 1.36 0 0 Z " fill="#6698BE" transform="translate(343,365)"/>
<path d="M0 0 C1.32 0.33 2.64 0.66 4 1 C3.34 1.66 2.68 2.32 2 3 C1.66883262 5.34409571 1.66883262 5.34409571 1.68115234 8.09228516 C1.66128265 9.15323395 1.64141296 10.21418274 1.62094116 11.30728149 C1.60938995 12.45626923 1.59783875 13.60525696 1.5859375 14.7890625 C1.56657135 15.96262299 1.5472052 17.13618347 1.5272522 18.3453064 C1.46732336 22.10512961 1.42101754 25.86498323 1.375 29.625 C1.3368325 32.16928442 1.29778151 34.71355575 1.2578125 37.2578125 C1.16161095 43.50509241 1.07660262 49.75245072 1 56 C0.67 56 0.34 56 0 56 C0 37.52 0 19.04 0 0 Z " fill="#3B9A26" transform="translate(412,414)"/>
<path d="M0 0 C0.33 0 0.66 0 1 0 C1 4.29 1 8.58 1 13 C1.99 13.33 2.98 13.66 4 14 C3.01 14 2.02 14 1 14 C1 18.62 1 23.24 1 28 C0.67 28 0.34 28 0 28 C0 23.38 0 18.76 0 14 C-9.57 14 -19.14 14 -29 14 C-28.67 13.34 -28.34 12.68 -28 12 C-14.14 12.495 -14.14 12.495 0 13 C-0.33 9.04 -0.66 5.08 -1 1 C-0.67 0.67 -0.34 0.34 0 0 Z " fill="#B0D6EF" transform="translate(433,379)"/>
<path d="M0 0 C0.33 0 0.66 0 1 0 C1.33 7.26 1.66 14.52 2 22 C0.35 22 -1.3 22 -3 22 C-2.55761615 14.46783285 -1.86094772 7.3197277 0 0 Z " fill="#C3DEEF" transform="translate(344,395)"/>
<path d="M0 0 C0.33 0 0.66 0 1 0 C1.02505615 1.21059082 1.0501123 2.42118164 1.07592773 3.66845703 C1.17034884 8.17490587 1.27048388 12.681213 1.37231445 17.1875 C1.41553236 19.13505734 1.45721631 21.08264937 1.49731445 23.03027344 C1.55533658 25.83539262 1.61893784 28.64033933 1.68359375 31.4453125 C1.70030624 32.31116974 1.71701874 33.17702698 1.73423767 34.06912231 C1.84132555 38.47391908 2.13321519 42.66299133 3 47 C2.01 47 1.02 47 0 47 C0 31.49 0 15.98 0 0 Z " fill="#A4C4DD" transform="translate(339,442)"/>
<path d="M0 0 C2.66666667 2.66666667 5.33333333 5.33333333 8 8 C7.34 9.98 6.68 11.96 6 14 C3 11 0 8 -3 5 C-2.01 3.35 -1.02 1.7 0 0 Z " fill="#D6E6EC" transform="translate(378,561)"/>
<path d="M0 0 C0.66 0 1.32 0 2 0 C1.4520917 4.2829452 -0.02432804 6.85135641 -2.5625 10.3125 C-3.20316406 11.19550781 -3.84382813 12.07851563 -4.50390625 12.98828125 C-4.99761719 13.65214844 -5.49132812 14.31601562 -6 15 C-6.99 14.67 -7.98 14.34 -9 14 C-8.67 13.01 -8.34 12.02 -8 11 C-7.34 11 -6.68 11 -6 11 C-5.82791016 10.12601562 -5.82791016 10.12601562 -5.65234375 9.234375 C-4.95175938 6.83476865 -4.01807405 5.27139067 -2.5625 3.25 C-2.13066406 2.63640625 -1.69882812 2.0228125 -1.25390625 1.390625 C-0.84011719 0.93171875 -0.42632812 0.4728125 0 0 Z " fill="#083E93" transform="translate(396,399)"/>
<path d="M0 0 C0.78552246 0.01047363 1.57104492 0.02094727 2.38037109 0.03173828 C3.23115234 0.03818359 4.08193359 0.04462891 4.95849609 0.05126953 C6.29267578 0.07640625 6.29267578 0.07640625 7.65380859 0.10205078 C8.99958984 0.11558594 8.99958984 0.11558594 10.37255859 0.12939453 C12.59157445 0.15300108 14.81005937 0.18592768 17.02880859 0.22705078 C16.69880859 0.88705078 16.36880859 1.54705078 16.02880859 2.22705078 C10.74880859 2.22705078 5.46880859 2.22705078 0.02880859 2.22705078 C0.02880859 5.85705078 0.02880859 9.48705078 0.02880859 13.22705078 C-0.30119141 13.22705078 -0.63119141 13.22705078 -0.97119141 13.22705078 C-1.04466797 12.16164063 -1.04466797 12.16164063 -1.11962891 11.07470703 C-1.23177734 9.69605469 -1.23177734 9.69605469 -1.34619141 8.28955078 C-1.41580078 7.37302734 -1.48541016 6.45650391 -1.55712891 5.51220703 C-1.69376953 4.75810547 -1.83041016 4.00400391 -1.97119141 3.22705078 C-2.63119141 2.89705078 -3.29119141 2.56705078 -3.97119141 2.22705078 C-1.97119141 0.22705078 -1.97119141 0.22705078 0 0 Z " fill="#75A5C5" transform="translate(403.97119140625,291.77294921875)"/>
<path d="M0 0 C0.99 0 1.98 0 3 0 C3.33 6.6 3.66 13.2 4 20 C0.63641561 16.63641561 0.07304938 12.69839798 -0.125 8.09375 C-0.125 5.39286838 -0.08786317 2.69935172 0 0 Z " fill="#D1E4F4" transform="translate(340,472)"/>
<path d="M0 0 C2.46800047 1.15173355 4.04783565 2.04783565 6 4 C3.03 3.505 3.03 3.505 0 3 C-0.20625 3.556875 -0.4125 4.11375 -0.625 4.6875 C-2.55000774 7.92501302 -5.03850902 9.68231141 -8 12 C-8 8 -8 8 -6.25 5.859375 C-5.5075 5.16328125 -4.765 4.4671875 -4 3.75 C-3.2575 3.04359375 -2.515 2.3371875 -1.75 1.609375 C-1.1725 1.07828125 -0.595 0.5471875 0 0 Z " fill="#0F5298" transform="translate(451,355)"/>
<path d="M0 0 C1.62600941 0.0870005 3.25089678 0.1951781 4.875 0.3125 C5.77992188 0.37050781 6.68484375 0.42851562 7.6171875 0.48828125 C10 1 10 1 12 4 C11.67 4.33 11.34 4.66 11 5 C6.60549251 4.56054925 2.31669828 3.94427775 -2 3 C-1.34 2.67 -0.68 2.34 0 2 C0 1.34 0 0.68 0 0 Z " fill="#2C6BA2" transform="translate(414,383)"/>
<path d="M0 0 C1.15224028 0.92961422 2.29659176 1.8690125 3.4375 2.8125 C4.07558594 3.33457031 4.71367187 3.85664063 5.37109375 4.39453125 C7 6 7 6 8 9 C8.99 9.33 9.98 9.66 11 10 C9.02 10.99 9.02 10.99 7 12 C4.36 9.03 1.72 6.06 -1 3 C-0.67 2.01 -0.34 1.02 0 0 Z " fill="#0B4A8F" transform="translate(379,400)"/>
<path d="M0 0 C1.32 0.66 2.64 1.32 4 2 C3.28457031 2.54140625 2.56914062 3.0828125 1.83203125 3.640625 C-1.17653906 6.1470753 -3.70571858 8.83040481 -6.3125 11.75 C-6.76689453 12.25660156 -7.22128906 12.76320313 -7.68945312 13.28515625 C-8.79644732 14.52032872 -9.89872325 15.75972716 -11 17 C-11 13.62270847 -10.62588793 13.16161118 -8.59375 10.64453125 C-8.09746094 10.02255859 -7.60117188 9.40058594 -7.08984375 8.75976562 C-6.56519531 8.11716797 -6.04054687 7.47457031 -5.5 6.8125 C-4.71302734 5.83120117 -4.71302734 5.83120117 -3.91015625 4.83007812 C-2.61324419 3.2148331 -1.30745336 1.60672434 0 0 Z " fill="#99CE41" transform="translate(244,380)"/>
<path d="M0 0 C0.66 1.32 1.32 2.64 2 4 C-2.455 7.96 -2.455 7.96 -7 12 C-7.33 10.68 -7.66 9.36 -8 8 C-6.34765625 5.859375 -6.34765625 5.859375 -4.0625 3.75 C-3.31097656 3.04359375 -2.55945313 2.3371875 -1.78515625 1.609375 C-1.19605469 1.07828125 -0.60695313 0.5471875 0 0 Z " fill="#22619D" transform="translate(350,412)"/>
<path d="M0 0 C5.51175932 1.18881083 8.23216888 2.5672575 12 7 C12.33 7.66 12.66 8.32 13 9 C11.68 8.67 10.36 8.34 9 8 C9 11.3 9 14.6 9 18 C8.67 18 8.34 18 8 18 C7.92523437 17.09636719 7.85046875 16.19273437 7.7734375 15.26171875 C7.3807167 11.73878217 6.93320141 8.42173851 6 5 C3.10912917 2.54512607 3.10912917 2.54512607 0 2 C0 1.34 0 0.68 0 0 Z " fill="#C7DEEF" transform="translate(629,291)"/>
<path d="M0 0 C0.99 0 1.98 0 3 0 C4.60546875 1.75 4.60546875 1.75 6.1875 4 C6.71730469 4.7425 7.24710937 5.485 7.79296875 6.25 C8.19128906 6.8275 8.58960938 7.405 9 8 C8.01 8.66 7.02 9.32 6 10 C4.02 8.35 2.04 6.7 0 5 C0.66 4.67 1.32 4.34 2 4 C2 3.34 2 2.68 2 2 C1.01 1.67 0.02 1.34 -1 1 C-0.67 0.67 -0.34 0.34 0 0 Z " fill="#215B97" transform="translate(371,392)"/>
<path d="M0 0 C0.99 0.99 1.98 1.98 3 3 C1.02 4.98 -0.96 6.96 -3 9 C-4.32 8.34 -5.64 7.68 -7 7 C-4.69 4.69 -2.38 2.38 0 0 Z " fill="#2068AB" transform="translate(441,365)"/>
<path d="M0 0 C6.23440168 1.58960332 12.16287645 3.27600901 18 6 C18 6.66 18 7.32 18 8 C13.99581065 7.34005027 10.49455548 6.11658275 6.75 4.5625 C5.69296875 4.13066406 4.6359375 3.69882812 3.546875 3.25390625 C1 2 1 2 0 0 Z " fill="#1A3961" transform="translate(422,645)"/>
<path d="M0 0 C0.33 0.66 0.66 1.32 1 2 C1.66 2.33 2.32 2.66 3 3 C2.67 3.99 2.34 4.98 2 6 C1.34 6 0.68 6 0 6 C-0.66 7.65 -1.32 9.3 -2 11 C-2.33 10.34 -2.66 9.68 -3 9 C-3.66 8.67 -4.32 8.34 -5 8 C-3.35 5.36 -1.7 2.72 0 0 Z " fill="#145DA6" transform="translate(401,390)"/>
<path d="M0 0 C0.33 0 0.66 0 1 0 C1 4.95 1 9.9 1 15 C-0.32 14.34 -1.64 13.68 -3 13 C-2.34 12.67 -1.68 12.34 -1 12 C-1.01160156 11.21753906 -1.02320313 10.43507813 -1.03515625 9.62890625 C-1.04417969 8.61699219 -1.05320312 7.60507812 -1.0625 6.5625 C-1.07410156 5.55316406 -1.08570313 4.54382813 -1.09765625 3.50390625 C-1 1 -1 1 0 0 Z " fill="#B7D8ED" transform="translate(464,350)"/>
<path d="M0 0 C1.32 0.33 2.64 0.66 4 1 C3.34 1.66 2.68 2.32 2 3 C1.62995706 5.22658154 1.62995706 5.22658154 1.5859375 7.7890625 C1.54726563 8.73007812 1.50859375 9.67109375 1.46875 10.640625 C1.4378125 11.62546875 1.406875 12.6103125 1.375 13.625 C1.33632813 14.61757813 1.29765625 15.61015625 1.2578125 16.6328125 C1.1633686 19.08835385 1.07780125 21.5438841 1 24 C0.67 24 0.34 24 0 24 C0 16.08 0 8.16 0 0 Z " fill="#53A726" transform="translate(412,414)"/>
<path d="M0 0 C0.33 0 0.66 0 1 0 C1 2.64 1 5.28 1 8 C-0.98 8 -2.96 8 -5 8 C-1.125 1.125 -1.125 1.125 0 0 Z " fill="#F3F8FB" transform="translate(371,339)"/>
<path d="M0 0 C1.98 0 3.96 0 6 0 C6 1.32 6 2.64 6 4 C6.99 4.33 7.98 4.66 9 5 C1.25 4.25 1.25 4.25 -1 2 C-0.67 1.34 -0.34 0.68 0 0 Z " fill="#A7BACC" transform="translate(552,261)"/>
<path d="M0 0 C0.66 0 1.32 0 2 0 C3.80230168 3.82989106 4.19622241 6.78121808 4 11 C3.34 10.67 2.68 10.34 2 10 C1.3671875 7.71484375 1.3671875 7.71484375 0.875 4.9375 C0.70742188 4.01839844 0.53984375 3.09929687 0.3671875 2.15234375 C0.24601562 1.44207031 0.12484375 0.73179687 0 0 Z " fill="#6D9DC1" transform="translate(330,485)"/>
<path d="M0 0 C0.33 0 0.66 0 1 0 C1.05429959 1.74965358 1.09292823 3.49979787 1.125 5.25 C1.14820313 6.22453125 1.17140625 7.1990625 1.1953125 8.203125 C0.99862781 11.0196498 0.44568916 12.60949036 -1 15 C-1.33 15 -1.66 15 -2 15 C-1.855625 14.01 -1.71125 13.02 -1.5625 12 C-0.99074821 8.00590535 -0.49180166 4.00467063 0 0 Z " fill="#8FC3E4" transform="translate(713,457)"/>
<path d="M0 0 C0.66 0.33 1.32 0.66 2 1 C0.63016497 4.16115776 0.0109362 4.9927092 -3 7 C-3.33 5.68 -3.66 4.36 -4 3 C-2.68 2.01 -1.36 1.02 0 0 Z " fill="#0B4D95" transform="translate(355,408)"/>
<path d="M0 0 C0.33 0 0.66 0 1 0 C1 2.64 1 5.28 1 8 C0.34 7.67 -0.32 7.34 -1 7 C-3.09821215 7.39938767 -3.09821215 7.39938767 -5 8 C-4.19185349 6.66402348 -3.37836819 5.331275 -2.5625 4 C-2.11003906 3.2575 -1.65757812 2.515 -1.19140625 1.75 C-0.79824219 1.1725 -0.40507812 0.595 0 0 Z " fill="#1268B0" transform="translate(484,519)"/>
<path d="M0 0 C6.52307692 1.35384615 6.52307692 1.35384615 8.9375 4.625 C9.288125 5.40875 9.63875 6.1925 10 7 C6.66666667 5.33333333 3.33333333 3.66666667 0 2 C0 1.34 0 0.68 0 0 Z " fill="#ABC6DD" transform="translate(629,291)"/>
<path d="M0 0 C2 3 2 3 3 6 C2.40206327 8.35188447 1.74118205 10.68925595 1 13 C0.67 13 0.34 13 0 13 C0 8.71 0 4.42 0 0 Z " fill="#0C782D" transform="translate(345,499)"/>
<path d="M0 0 C2.52588702 2.36292656 3.88820837 3.66462511 5 7 C0.125 5.25 0.125 5.25 -1 3 C-0.67 2.01 -0.34 1.02 0 0 Z " fill="#3678B5" transform="translate(463,364)"/>
<path d="M0 0 C1.32 0 2.64 0 4 0 C4 0.66 4 1.32 4 2 C4.99 2.33 5.98 2.66 7 3 C5.02 3.99 5.02 3.99 3 5 C2.01 3.35 1.02 1.7 0 0 Z " fill="#185399" transform="translate(383,407)"/>
<path d="M0 0 C1.65 0.33 3.3 0.66 5 1 C3.35 2.98 1.7 4.96 0 7 C-0.93423645 3.98968256 -1.04449911 3.13349732 0 0 Z " fill="#83A7C6" transform="translate(337,370)"/>
<path d="M0 0 C1.9375 0.75 1.9375 0.75 4 2 C4.75 4.125 4.75 4.125 5 6 C3.0625 5.25 3.0625 5.25 1 4 C0.25 1.875 0.25 1.875 0 0 Z " fill="#0E5597" transform="translate(458,361)"/>
<path d="M0 0 C0.66 0.66 1.32 1.32 2 2 C0.02 4.31 -1.96 6.62 -4 9 C-4.66 8.67 -5.32 8.34 -6 8 C-4.02 5.36 -2.04 2.72 0 0 Z " fill="#236BA9" transform="translate(333,308)"/>
</svg>
